<svg version="1.1" viewBox="0 0 2794.7 869.12" xmlns="http://www.w3.org/2000/svg"><defs><clipPath id="swe-cf"><path transform="translate(-1292.3,-995.09)" d="m0 2e3h2e3v-2e3h-2e3z"/></clipPath><clipPath id="swe-u"><path transform="translate(-1221.7,-995.09)" d="m0 2e3h2e3v-2e3h-2e3z"/></clipPath><clipPath id="swe-q"><path transform="translate(-941.98,-1010.4)" d="m0 2e3h2e3v-2e3h-2e3z"/></clipPath><clipPath id="swe-fc"><path transform="translate(-948.62,-957.7)" d="m0 2e3h2e3v-2e3h-2e3z"/></clipPath><clipPath id="swe-c"><path transform="translate(-1041.6,-1006.6)" d="m0 2e3h2e3v-2e3h-2e3z"/></clipPath><clipPath id="swe-hh"><path transform="translate(-1119.7,-858.21)" d="m0 2e3h2e3v-2e3h-2e3z"/></clipPath><clipPath id="swe-gr"><path transform="translate(-829.07,-864.51)" d="m0 2e3h2e3v-2e3h-2e3z"/></clipPath><clipPath id="swe-gc"><path transform="translate(-1119.7,-858.21)" d="m0 2e3h2e3v-2e3h-2e3z"/></clipPath><clipPath id="swe-fm"><path transform="translate(-1089,-1068.1)" d="m0 2e3h2e3v-2e3h-2e3z"/></clipPath><clipPath id="swe-ex"><path transform="translate(-1078.5,-1046.9)" d="m0 2e3h2e3v-2e3h-2e3z"/></clipPath><clipPath id="swe-ei"><path transform="translate(-848.3,-1067.4)" d="m0 2e3h2e3v-2e3h-2e3z"/></clipPath><clipPath id="swe-ds"><path transform="translate(-1157.6,-1078.8)" d="m0 2e3h2e3v-2e3h-2e3z"/></clipPath><clipPath id="swe-dd"><path transform="translate(-1169.5,-999.87)" d="m0 2e3h2e3v-2e3h-2e3z"/></clipPath><clipPath id="swe-cn"><path transform="translate(-850.49,-889.2)" d="m0 2e3h2e3v-2e3h-2e3z"/></clipPath><clipPath id="swe-bz"><path transform="translate(-862.68,-891.16)" d="m0 2e3h2e3v-2e3h-2e3z"/></clipPath><clipPath id="swe-bm"><path transform="translate(-872.69,-889.2)" d="m0 2e3h2e3v-2e3h-2e3z"/></clipPath><clipPath id="swe-bb"><path transform="translate(-876.83,-891.16)" d="m0 2e3h2e3v-2e3h-2e3z"/></clipPath><clipPath id="swe-ap"><path transform="translate(-890.08,-888.16)" d="m0 2e3h2e3v-2e3h-2e3z"/></clipPath><clipPath id="swe-ad"><path transform="translate(0,2.5e-5)" d="m0 2e3h2e3v-2e3h-2e3z"/></clipPath><clipPath id="swe-z"><path transform="translate(-910.83,-891.16)" d="m0 2e3h2e3v-2e3h-2e3z"/></clipPath><clipPath id="swe-y"><path transform="translate(-919.43,-888.16)" d="m0 2e3h2e3v-2e3h-2e3z"/></clipPath><clipPath id="swe-x"><path transform="translate(-933.35,-887.38)" d="m0 2e3h2e3v-2e3h-2e3z"/></clipPath><clipPath id="swe-w"><path transform="translate(-941.77,-887.43)" d="m0 2e3h2e3v-2e3h-2e3z"/></clipPath><clipPath id="swe-v"><path transform="translate(-950.37,-887.43)" d="m0 2e3h2e3v-2e3h-2e3z"/></clipPath><clipPath id="swe-t"><path transform="translate(-966.57,-887.43)" d="m0 2e3h2e3v-2e3h-2e3z"/></clipPath><clipPath id="swe-hu"><path transform="translate(-977.17,-887.43)" d="m0 2e3h2e3v-2e3h-2e3z"/></clipPath><clipPath id="swe-gt"><path transform="translate(-991.46,-891.16)" d="m0 2e3h2e3v-2e3h-2e3z"/></clipPath><clipPath id="swe-fs"><path transform="translate(-998.61,-887.43)" d="m0 2e3h2e3v-2e3h-2e3z"/></clipPath><clipPath id="swe-er"><path transform="translate(-1008.1,-887.43)" d="m0 2e3h2e3v-2e3h-2e3z"/></clipPath><clipPath id="swe-dq"><path transform="translate(-1019.2,-887.34)" d="m0 2e3h2e3v-2e3h-2e3z"/></clipPath><clipPath id="swe-cp"><path transform="translate(-1032.1,-888.88)" d="m0 2e3h2e3v-2e3h-2e3z"/></clipPath><clipPath id="swe-bo"><path transform="translate(-1047.7,-891.16)" d="m0 2e3h2e3v-2e3h-2e3z"/></clipPath><clipPath id="swe-an"><path transform="translate(-1055.6,-887.43)" d="m0 2e3h2e3v-2e3h-2e3z"/></clipPath><clipPath id="swe-r"><path transform="translate(-1069.2,-891.16)" d="m0 2e3h2e3v-2e3h-2e3z"/></clipPath><clipPath id="swe-p"><path transform="translate(-1073.4,-891.16)" d="m0 2e3h2e3v-2e3h-2e3z"/></clipPath><clipPath id="swe-o"><path transform="translate(-867.01,-879.24)" d="m0 2e3h2e3v-2e3h-2e3z"/></clipPath><clipPath id="swe-n"><path transform="translate(-883.39,-882.97)" d="m0 2e3h2e3v-2e3h-2e3z"/></clipPath><clipPath id="swe-m"><path transform="translate(-893.17,-880.74)" d="m0 2e3h2e3v-2e3h-2e3z"/></clipPath><clipPath id="swe-l"><path transform="translate(-904.96,-879.15)" d="m0 2e3h2e3v-2e3h-2e3z"/></clipPath><clipPath id="swe-k"><path transform="translate(-926.25,-882.97)" d="m0 2e3h2e3v-2e3h-2e3z"/></clipPath><clipPath id="swe-j"><path transform="translate(-933.4,-879.24)" d="m0 2e3h2e3v-2e3h-2e3z"/></clipPath><clipPath id="swe-i"><path transform="translate(-945.09,-880.74)" d="m0 2e3h2e3v-2e3h-2e3z"/></clipPath><clipPath id="swe-hg"><path transform="translate(0,2.5e-5)" d="m0 2e3h2e3v-2e3h-2e3z"/></clipPath><clipPath id="swe-ge"><path transform="translate(-963.16,-882.97)" d="m0 2e3h2e3v-2e3h-2e3z"/></clipPath><clipPath id="swe-ea"><path transform="translate(-974.35,-880.87)" d="m0 2e3h2e3v-2e3h-2e3z"/></clipPath><clipPath id="swe-cy"><path transform="translate(-993.6,-882.97)" d="m0 2e3h2e3v-2e3h-2e3z"/></clipPath><clipPath id="swe-bw"><path transform="translate(-1005.4,-882.97)" d="m0 2e3h2e3v-2e3h-2e3z"/></clipPath><clipPath id="swe-au"><path transform="translate(-1020,-882.97)" d="m0 2e3h2e3v-2e3h-2e3z"/></clipPath><clipPath id="swe-s"><path transform="translate(-1028.6,-879.96)" d="m0 2e3h2e3v-2e3h-2e3z"/></clipPath><clipPath id="swe-h"><path transform="translate(-1044.3,-882.97)" d="m0 2e3h2e3v-2e3h-2e3z"/></clipPath><clipPath id="swe-g"><path transform="translate(0,2.5e-5)" d="m0 2e3h2e3v-2e3h-2e3z"/></clipPath><clipPath id="swe-f"><path transform="translate(-1053.5,-882.97)" d="m0 2e3h2e3v-2e3h-2e3z"/></clipPath><clipPath id="swe-e"><path transform="translate(-1071.1,-882.97)" d="m0 2e3h2e3v-2e3h-2e3z"/></clipPath><clipPath id="swe-d"><path transform="translate(-1071.3,-916.6)" d="m1070 916.6h12.98v-5.571h-12.98z"/></clipPath><clipPath id="swe-b"><path transform="matrix(1.3333,0,0,-1.3333,0,2666.7)" d="m0 2e3h2e3v-2e3h-2e3z"/></clipPath><clipPath id="swe-a"><path transform="translate(-1074.5,-909.76)" d="m1072.8 909.76h13.87v-7.282h-13.87z"/></clipPath><clipPath id="swe-ht"><path transform="matrix(1.3333,0,0,-1.3333,0,2666.7)" d="m0 2e3h2e3v-2e3h-2e3z"/></clipPath><clipPath id="swe-hs"><path transform="translate(-1077.9,-901.22)" d="m1076.2 901.22h14.24v-7.292h-14.24z"/></clipPath><clipPath id="swe-hr"><path transform="matrix(1.3333,0,0,-1.3333,0,2666.7)" d="m0 2e3h2e3v-2e3h-2e3z"/></clipPath><clipPath id="swe-hq"><path transform="translate(-1057.3,-916.6)" d="m1055.9 916.6h12.77v-5.571h-12.77z"/></clipPath><clipPath id="swe-hp"><path transform="matrix(1.3333,0,0,-1.3333,0,2666.7)" d="m0 2e3h2e3v-2e3h-2e3z"/></clipPath><clipPath id="swe-ho"><path transform="translate(-1046.8,-909.76)" d="m1044.9 909.76h26.93v-7.282h-26.93z"/></clipPath><clipPath id="swe-hn"><path transform="matrix(1.3333,0,0,-1.3333,0,2666.7)" d="m0 2e3h2e3v-2e3h-2e3z"/></clipPath><clipPath id="swe-hm"><path transform="translate(-1059.1,-901.22)" d="m1057.2 901.22h18v-7.292h-18z"/></clipPath><clipPath id="swe-hl"><path transform="matrix(1.3333,0,0,-1.3333,0,2666.7)" d="m0 2e3h2e3v-2e3h-2e3z"/></clipPath><clipPath id="swe-hk"><path transform="translate(-1072,-875.59)" d="m1070.1 875.59h15.06v-7.281h-15.06z"/></clipPath><clipPath id="swe-hj"><path transform="matrix(1.3333,0,0,-1.3333,0,2666.7)" d="m0 2e3h2e3v-2e3h-2e3z"/></clipPath><clipPath id="swe-hi"><path transform="translate(-1044.3,-916.6)" d="m1042.9 916.6h11.47v-5.571h-11.47z"/></clipPath><clipPath id="swe-hf"><path transform="matrix(1.3333,0,0,-1.3333,0,2666.7)" d="m0 2e3h2e3v-2e3h-2e3z"/></clipPath><clipPath id="swe-he"><path transform="translate(-1031,-916.6)" d="m1029.6 916.6h11.28v-5.571h-11.28z"/></clipPath><clipPath id="swe-hd"><path transform="matrix(1.3333,0,0,-1.3333,0,2666.7)" d="m0 2e3h2e3v-2e3h-2e3z"/></clipPath><clipPath id="swe-hc"><path transform="translate(-1017.8,-916.6)" d="m1016.4 916.6h11.07v-5.571h-11.07z"/></clipPath><clipPath id="swe-hb"><path transform="matrix(1.3333,0,0,-1.3333,0,2666.7)" d="m0 2e3h2e3v-2e3h-2e3z"/></clipPath><clipPath id="swe-ha"><path transform="translate(-1004.6,-916.6)" d="m1003.1 916.6h10.88v-5.571h-10.88z"/></clipPath><clipPath id="swe-gz"><path transform="matrix(1.3333,0,0,-1.3333,0,2666.7)" d="m0 2e3h2e3v-2e3h-2e3z"/></clipPath><clipPath id="swe-gy"><path transform="translate(-991.45,-916.6)" d="m989.88 916.6h10.701v-5.571h-10.701z"/></clipPath><clipPath id="swe-gx"><path transform="matrix(1.3333,0,0,-1.3333,0,2666.7)" d="m0 2e3h2e3v-2e3h-2e3z"/></clipPath><clipPath id="swe-gw"><path transform="translate(-978.22,-916.6)" d="m976.61 916.6h10.483v-5.571h-10.483z"/></clipPath><clipPath id="swe-gv"><path transform="matrix(1.3333,0,0,-1.3333,0,2666.7)" d="m0 2e3h2e3v-2e3h-2e3z"/></clipPath><clipPath id="swe-gu"><path transform="translate(-965.02,-916.6)" d="m963.31 916.6h10.343v-5.571h-10.343z"/></clipPath><clipPath id="swe-gs"><path transform="matrix(1.3333,0,0,-1.3333,0,2666.7)" d="m0 2e3h2e3v-2e3h-2e3z"/></clipPath><clipPath id="swe-gq"><path transform="translate(-951.82,-916.6)" d="m949.87 916.6h10.447v-5.571h-10.447z"/></clipPath><clipPath id="swe-gp"><path transform="matrix(1.3333,0,0,-1.3333,0,2666.7)" d="m0 2e3h2e3v-2e3h-2e3z"/></clipPath><clipPath id="swe-go"><path transform="translate(-938.59,-916.6)" d="m936.43 916.6h10.628v-5.571h-10.628z"/></clipPath><clipPath id="swe-gn"><path transform="matrix(1.3333,0,0,-1.3333,0,2666.7)" d="m0 2e3h2e3v-2e3h-2e3z"/></clipPath><clipPath id="swe-gm"><path transform="translate(-925.43,-916.6)" d="m922.98 916.6h10.843v-5.571h-10.843z"/></clipPath><clipPath id="swe-gl"><path transform="matrix(1.3333,0,0,-1.3333,0,2666.7)" d="m0 2e3h2e3v-2e3h-2e3z"/></clipPath><clipPath id="swe-gk"><path transform="translate(-912.2,-916.6)" d="m909.54 916.6h11.028v-5.571h-11.028z"/></clipPath><clipPath id="swe-gj"><path transform="matrix(1.3333,0,0,-1.3333,0,2666.7)" d="m0 2e3h2e3v-2e3h-2e3z"/></clipPath><clipPath id="swe-gi"><path transform="translate(-899,-916.6)" d="m896.06 916.6h11.245v-5.571h-11.245z"/></clipPath><clipPath id="swe-gh"><path transform="matrix(1.3333,0,0,-1.3333,0,2666.7)" d="m0 2e3h2e3v-2e3h-2e3z"/></clipPath><clipPath id="swe-gg"><path transform="translate(-885.77,-916.6)" d="m882.64 916.6h11.408v-5.571h-11.408z"/></clipPath><clipPath id="swe-gf"><path transform="matrix(1.3333,0,0,-1.3333,0,2666.7)" d="m0 2e3h2e3v-2e3h-2e3z"/></clipPath><clipPath id="swe-gd"><path transform="translate(-872.57,-916.6)" d="m869.19 916.6h11.633v-5.571h-11.633z"/></clipPath><clipPath id="swe-gb"><path transform="matrix(1.3333,0,0,-1.3333,0,2666.7)" d="m0 2e3h2e3v-2e3h-2e3z"/></clipPath><clipPath id="swe-ga"><path transform="translate(-857.74,-916.6)" d="m854.07 916.6h12.938v-5.571h-12.938z"/></clipPath><clipPath id="swe-fz"><path transform="matrix(1.3333,0,0,-1.3333,0,2666.7)" d="m0 2e3h2e3v-2e3h-2e3z"/></clipPath><clipPath id="swe-fy"><path transform="translate(-1032.2,-909.76)" d="m1030.4 909.76h12.82v-7.282h-12.82z"/></clipPath><clipPath id="swe-fx"><path transform="matrix(1.3333,0,0,-1.3333,0,2666.7)" d="m0 2e3h2e3v-2e3h-2e3z"/></clipPath><clipPath id="swe-fw"><path transform="translate(-1017.5,-909.76)" d="m1015.6 909.76h12.56v-7.282h-12.56z"/></clipPath><clipPath id="swe-fv"><path transform="matrix(1.3333,0,0,-1.3333,0,2666.7)" d="m0 2e3h2e3v-2e3h-2e3z"/></clipPath><clipPath id="swe-fu"><path transform="translate(-1002.8,-909.76)" d="m1000.9 909.76h12.27v-7.282h-12.27z"/></clipPath><clipPath id="swe-ft"><path transform="matrix(1.3333,0,0,-1.3333,0,2666.7)" d="m0 2e3h2e3v-2e3h-2e3z"/></clipPath><clipPath id="swe-fr"><path transform="translate(-988.07,-909.76)" d="m986.08 909.76h11.985v-7.282h-11.985z"/></clipPath><clipPath id="swe-fq"><path transform="matrix(1.3333,0,0,-1.3333,0,2666.7)" d="m0 2e3h2e3v-2e3h-2e3z"/></clipPath><clipPath id="swe-fp"><path transform="translate(-973.38,-909.76)" d="m971.32 909.76h11.701v-7.282h-11.701z"/></clipPath><clipPath id="swe-fo"><path transform="matrix(1.3333,0,0,-1.3333,0,2666.7)" d="m0 2e3h2e3v-2e3h-2e3z"/></clipPath><clipPath id="swe-fn"><path transform="translate(-958.65,-909.76)" d="m956.38 909.76h11.596v-7.282h-11.596z"/></clipPath><clipPath id="swe-fl"><path transform="matrix(1.3333,0,0,-1.3333,0,2666.7)" d="m0 2e3h2e3v-2e3h-2e3z"/></clipPath><clipPath id="swe-fk"><path transform="translate(-943.92,-909.76)" d="m941.34 909.76h11.843v-7.282h-11.843z"/></clipPath><clipPath id="swe-fj"><path transform="matrix(1.3333,0,0,-1.3333,0,2666.7)" d="m0 2e3h2e3v-2e3h-2e3z"/></clipPath><clipPath id="swe-fi"><path transform="translate(-929.22,-909.76)" d="m926.29 909.76h12.129v-7.282h-12.129z"/></clipPath><clipPath id="swe-fh"><path transform="matrix(1.3333,0,0,-1.3333,0,2666.7)" d="m0 2e3h2e3v-2e3h-2e3z"/></clipPath><clipPath id="swe-fg"><path transform="translate(-914.53,-909.76)" d="m911.24 909.76h12.387v-7.282h-12.387z"/></clipPath><clipPath id="swe-ff"><path transform="matrix(1.3333,0,0,-1.3333,0,2666.7)" d="m0 2e3h2e3v-2e3h-2e3z"/></clipPath><clipPath id="swe-fe"><path transform="translate(-899.84,-909.76)" d="m896.16 909.76h12.714v-7.282h-12.714z"/></clipPath><clipPath id="swe-fd"><path transform="matrix(1.3333,0,0,-1.3333,0,2666.7)" d="m0 2e3h2e3v-2e3h-2e3z"/></clipPath><clipPath id="swe-fb"><path transform="translate(-885.11,-909.76)" d="m881.1 909.76h12.983v-7.282h-12.983z"/></clipPath><clipPath id="swe-fa"><path transform="matrix(1.3333,0,0,-1.3333,0,2666.7)" d="m0 2e3h2e3v-2e3h-2e3z"/></clipPath><clipPath id="swe-ez"><path transform="translate(-870.41,-909.76)" d="m866.05 909.76h13.287v-7.282h-13.287z"/></clipPath><clipPath id="swe-ey"><path transform="matrix(1.3333,0,0,-1.3333,0,2666.7)" d="m0 2e3h2e3v-2e3h-2e3z"/></clipPath><clipPath id="swe-ew"><path transform="translate(-855.23,-909.76)" d="m850.46 909.76h13.839v-7.282h-13.839z"/></clipPath><clipPath id="swe-ev"><path transform="matrix(1.3333,0,0,-1.3333,0,2666.7)" d="m0 2e3h2e3v-2e3h-2e3z"/></clipPath><clipPath id="swe-eu"><path transform="translate(-851.71,-901.22)" d="m846.81 901.22h22.57v-7.292h-22.57z"/></clipPath><clipPath id="swe-et"><path transform="matrix(1.3333,0,0,-1.3333,0,2666.7)" d="m0 2e3h2e3v-2e3h-2e3z"/></clipPath><clipPath id="swe-es"><path transform="translate(-842.58,-884.13)" d="m839.43 884.13h22.129v-7.282h-22.129z"/></clipPath><clipPath id="swe-eq"><path transform="matrix(1.3333,0,0,-1.3333,0,2666.7)" d="m0 2e3h2e3v-2e3h-2e3z"/></clipPath><clipPath id="swe-ep"><path transform="translate(-840.88,-875.59)" d="m835.74 875.59h19.401v-7.281h-19.401z"/></clipPath><clipPath id="swe-eo"><path transform="matrix(1.3333,0,0,-1.3333,0,2666.7)" d="m0 2e3h2e3v-2e3h-2e3z"/></clipPath><clipPath id="swe-en"><path transform="translate(-873.89,-901.22)" d="m869.54 901.22h14.344v-7.292h-14.344z"/></clipPath><clipPath id="swe-em"><path transform="matrix(1.3333,0,0,-1.3333,0,2666.7)" d="m0 2e3h2e3v-2e3h-2e3z"/></clipPath><clipPath id="swe-el"><path transform="translate(-889.35,-901.22)" d="m885.35 901.22h14.05v-7.292h-14.05z"/></clipPath><clipPath id="swe-ek"><path transform="matrix(1.3333,0,0,-1.3333,0,2666.7)" d="m0 2e3h2e3v-2e3h-2e3z"/></clipPath><clipPath id="swe-ej"><path transform="translate(-904.85,-901.22)" d="m901.18 901.22h13.75v-7.292h-13.75z"/></clipPath><clipPath id="swe-eh"><path transform="matrix(1.3333,0,0,-1.3333,0,2666.7)" d="m0 2e3h2e3v-2e3h-2e3z"/></clipPath><clipPath id="swe-eg"><path transform="translate(-920.31,-901.22)" d="m916.99 901.22h13.492v-7.292h-13.492z"/></clipPath><clipPath id="swe-ef"><path transform="matrix(1.3333,0,0,-1.3333,0,2666.7)" d="m0 2e3h2e3v-2e3h-2e3z"/></clipPath><clipPath id="swe-ee"><path transform="translate(-935.77,-901.22)" d="m932.81 901.22h13.203v-7.292h-13.203z"/></clipPath><clipPath id="swe-ed"><path transform="matrix(1.3333,0,0,-1.3333,0,2666.7)" d="m0 2e3h2e3v-2e3h-2e3z"/></clipPath><clipPath id="swe-ec"><path transform="translate(-951.27,-901.22)" d="m948.62 901.22h12.92v-7.292h-12.92z"/></clipPath><clipPath id="swe-eb"><path transform="matrix(1.3333,0,0,-1.3333,0,2666.7)" d="m0 2e3h2e3v-2e3h-2e3z"/></clipPath><clipPath id="swe-dz"><path transform="translate(-966.69,-901.22)" d="m964.43 901.22h12.815v-7.292h-12.815z"/></clipPath><clipPath id="swe-dy"><path transform="matrix(1.3333,0,0,-1.3333,0,2666.7)" d="m0 2e3h2e3v-2e3h-2e3z"/></clipPath><clipPath id="swe-dx"><path transform="translate(-982.19,-901.22)" d="m980.03 901.22h12.993v-7.292h-12.993z"/></clipPath><clipPath id="swe-dw"><path transform="matrix(1.3333,0,0,-1.3333,0,2666.7)" d="m0 2e3h2e3v-2e3h-2e3z"/></clipPath><clipPath id="swe-dv"><path transform="translate(-997.65,-901.22)" d="m995.59 901.22h13.283v-7.292h-13.283z"/></clipPath><clipPath id="swe-du"><path transform="matrix(1.3333,0,0,-1.3333,0,2666.7)" d="m0 2e3h2e3v-2e3h-2e3z"/></clipPath><clipPath id="swe-dt"><path transform="translate(-1013.1,-901.22)" d="m1011.1 901.22h13.58v-7.292h-13.58z"/></clipPath><clipPath id="swe-dr"><path transform="matrix(1.3333,0,0,-1.3333,0,2666.7)" d="m0 2e3h2e3v-2e3h-2e3z"/></clipPath><clipPath id="swe-dp"><path transform="translate(-1028.6,-901.22)" d="m1026.6 901.22h13.84v-7.292h-13.84z"/></clipPath><clipPath id="swe-do"><path transform="matrix(1.3333,0,0,-1.3333,0,2666.7)" d="m0 2e3h2e3v-2e3h-2e3z"/></clipPath><clipPath id="swe-dn"><path transform="translate(-1044.1,-901.22)" d="m1042.2 901.22h14.17v-7.292h-14.17z"/></clipPath><clipPath id="swe-dm"><path transform="matrix(1.3333,0,0,-1.3333,0,2666.7)" d="m0 2e3h2e3v-2e3h-2e3z"/></clipPath><clipPath id="swe-dl"><path transform="translate(-861.5,-875.59)" d="m856.86 875.59h15.57v-7.281h-15.57z"/></clipPath><clipPath id="swe-dk"><path transform="matrix(1.3333,0,0,-1.3333,0,2666.7)" d="m0 2e3h2e3v-2e3h-2e3z"/></clipPath><clipPath id="swe-dj"><path transform="translate(-878.42,-875.59)" d="m874.11 875.59h15.268v-7.281h-15.268z"/></clipPath><clipPath id="swe-di"><path transform="matrix(1.3333,0,0,-1.3333,0,2666.7)" d="m0 2e3h2e3v-2e3h-2e3z"/></clipPath><clipPath id="swe-dh"><path transform="translate(-895.38,-875.59)" d="m891.42 875.59h14.973v-7.281h-14.973z"/></clipPath><clipPath id="swe-dg"><path transform="matrix(1.3333,0,0,-1.3333,0,2666.7)" d="m0 2e3h2e3v-2e3h-2e3z"/></clipPath><clipPath id="swe-df"><path transform="translate(-912.27,-875.59)" d="m908.67 875.59h14.714v-7.281h-14.714z"/></clipPath><clipPath id="swe-de"><path transform="matrix(1.3333,0,0,-1.3333,0,2666.7)" d="m0 2e3h2e3v-2e3h-2e3z"/></clipPath><clipPath id="swe-dc"><path transform="translate(-929.19,-875.59)" d="m925.94 875.59h14.425v-7.281h-14.425z"/></clipPath><clipPath id="swe-db"><path transform="matrix(1.3333,0,0,-1.3333,0,2666.7)" d="m0 2e3h2e3v-2e3h-2e3z"/></clipPath><clipPath id="swe-da"><path transform="translate(-946.11,-875.59)" d="m943.22 875.59h14.141v-7.281h-14.141z"/></clipPath><clipPath id="swe-cz"><path transform="matrix(1.3333,0,0,-1.3333,0,2666.7)" d="m0 2e3h2e3v-2e3h-2e3z"/></clipPath><clipPath id="swe-cx"><path transform="translate(-963.03,-875.59)" d="m960.46 875.59h13.998v-7.281h-13.998z"/></clipPath><clipPath id="swe-cw"><path transform="matrix(1.3333,0,0,-1.3333,0,2666.7)" d="m0 2e3h2e3v-2e3h-2e3z"/></clipPath><clipPath id="swe-cv"><path transform="translate(-979.96,-875.59)" d="m977.59 875.59h14.139v-7.281h-14.139z"/></clipPath><clipPath id="swe-cu"><path transform="matrix(1.3333,0,0,-1.3333,0,2666.7)" d="m0 2e3h2e3v-2e3h-2e3z"/></clipPath><clipPath id="swe-ct"><path transform="translate(-996.88,-875.59)" d="m994.54 875.59h14.456v-7.281h-14.456z"/></clipPath><clipPath id="swe-cs"><path transform="matrix(1.3333,0,0,-1.3333,0,2666.7)" d="m0 2e3h2e3v-2e3h-2e3z"/></clipPath><clipPath id="swe-cr"><path transform="translate(-1013.8,-875.59)" d="m1011.6 875.59h14.68v-7.281h-14.68z"/></clipPath><clipPath id="swe-cq"><path transform="matrix(1.3333,0,0,-1.3333,0,2666.7)" d="m0 2e3h2e3v-2e3h-2e3z"/></clipPath><clipPath id="swe-co"><path transform="translate(-1030.8,-875.59)" d="m1028.5 875.59h22.36v-7.281h-22.36z"/></clipPath><clipPath id="swe-cm"><path transform="matrix(1.3333,0,0,-1.3333,0,2666.7)" d="m0 2e3h2e3v-2e3h-2e3z"/></clipPath><clipPath id="swe-cl"><path transform="translate(-1055.7,-875.59)" d="m1053.7 875.59h14.79v-7.281h-14.79z"/></clipPath><clipPath id="swe-ck"><path transform="matrix(1.3333,0,0,-1.3333,0,2666.7)" d="m0 2e3h2e3v-2e3h-2e3z"/></clipPath><clipPath id="swe-cj"><path transform="translate(-1080.9,-884.77)" d="m1078.4 884.77h19.85v-7.282h-19.85z"/></clipPath><clipPath id="swe-ci"><path transform="matrix(1.3333,0,0,-1.3333,0,2666.7)" d="m0 2e3h2e3v-2e3h-2e3z"/></clipPath><clipPath id="swe-ch"><path transform="translate(-1089.4,-875.87)" d="m1087.5 875.87h15.35v-7.281h-15.35z"/></clipPath><clipPath id="swe-cg"><path transform="matrix(1.3333,0,0,-1.3333,0,2666.7)" d="m0 2e3h2e3v-2e3h-2e3z"/></clipPath><clipPath id="swe-ce"><path transform="translate(-735.18,-1133.2)" d="m0 2e3h2e3v-2e3h-2e3z"/></clipPath><clipPath id="swe-cd"><path transform="translate(-755.62,-1172.8)" d="m0 2e3h2e3v-2e3h-2e3z"/></clipPath><clipPath id="swe-cc"><path transform="translate(-762.6,-1218.6)" d="m0 2e3h2e3v-2e3h-2e3z"/></clipPath><clipPath id="swe-cb"><path transform="translate(-785.54,-1237.8)" d="m0 2e3h2e3v-2e3h-2e3z"/></clipPath><clipPath id="swe-ca"><path transform="translate(-830.12,-1266.4)" d="m0 2e3h2e3v-2e3h-2e3z"/></clipPath><clipPath id="swe-by"><path transform="translate(-863.34,-1256.9)" d="m0 2e3h2e3v-2e3h-2e3z"/></clipPath><clipPath id="swe-bx"><path transform="translate(-882.94,-1270.6)" d="m0 2e3h2e3v-2e3h-2e3z"/></clipPath><clipPath id="swe-bv"><path transform="translate(-911.81,-1288.1)" d="m0 2e3h2e3v-2e3h-2e3z"/></clipPath><clipPath id="swe-bu"><path transform="translate(-963.15,-1293.6)" d="m0 2e3h2e3v-2e3h-2e3z"/></clipPath><clipPath id="swe-bt"><path transform="translate(-1009.7,-1262.8)" d="m0 2e3h2e3v-2e3h-2e3z"/></clipPath><clipPath id="swe-bs"><path transform="translate(-1043.2,-1279.4)" d="m0 2e3h2e3v-2e3h-2e3z"/></clipPath><clipPath id="swe-br"><path transform="translate(-1066.9,-1282.7)" d="m0 2e3h2e3v-2e3h-2e3z"/></clipPath><clipPath id="swe-bq"><path transform="translate(-1088.5,-1238.1)" d="m0 2e3h2e3v-2e3h-2e3z"/></clipPath><clipPath id="swe-bp"><path transform="translate(-1113.1,-1256.4)" d="m0 2e3h2e3v-2e3h-2e3z"/></clipPath><clipPath id="swe-bn"><path transform="translate(-1136.3,-1242.2)" d="m0 2e3h2e3v-2e3h-2e3z"/></clipPath><clipPath id="swe-bl"><path transform="translate(-1151.9,-1218.2)" d="m0 2e3h2e3v-2e3h-2e3z"/></clipPath><clipPath id="swe-bk"><path transform="translate(-1185.9,-1207.8)" d="m0 2e3h2e3v-2e3h-2e3z"/></clipPath><clipPath id="swe-bj"><path transform="translate(-1185,-1158.3)" d="m0 2e3h2e3v-2e3h-2e3z"/></clipPath><clipPath id="swe-bi"><path transform="translate(-1220.6,-1146.8)" d="m0 2e3h2e3v-2e3h-2e3z"/></clipPath><clipPath id="swe-bh"><path transform="translate(-691.25,-942.67)" d="m0 2e3h2e3v-2e3h-2e3z"/></clipPath><clipPath id="swe-bg"><path transform="translate(-690.6,-921.83)" d="m0 2e3h2e3v-2e3h-2e3z"/></clipPath><clipPath id="swe-bf"><path transform="translate(-709.4,-896.05)" d="m0 2e3h2e3v-2e3h-2e3z"/></clipPath><clipPath id="swe-be"><path transform="translate(-719.36,-873.22)" d="m0 2e3h2e3v-2e3h-2e3z"/></clipPath><clipPath id="swe-bd"><path transform="translate(-719.23,-818.05)" d="m0 2e3h2e3v-2e3h-2e3z"/></clipPath><clipPath id="swe-bc"><path transform="translate(-761.5,-818.43)" d="m0 2e3h2e3v-2e3h-2e3z"/></clipPath><clipPath id="swe-ba"><path transform="translate(-778,-755.82)" d="m0 2e3h2e3v-2e3h-2e3z"/></clipPath><clipPath id="swe-az"><path transform="translate(-810,-773.89)" d="m0 2e3h2e3v-2e3h-2e3z"/></clipPath><clipPath id="swe-ay"><path transform="translate(-839.95,-754.71)" d="m0 2e3h2e3v-2e3h-2e3z"/></clipPath><clipPath id="swe-ax"><path transform="translate(-846.22,-745.95)" d="m0 2e3h2e3v-2e3h-2e3z"/></clipPath><clipPath id="swe-aw"><path transform="translate(-865.48,-726.65)" d="m0 2e3h2e3v-2e3h-2e3z"/></clipPath><clipPath id="swe-av"><path transform="translate(-889.35,-700.8)" d="m0 2e3h2e3v-2e3h-2e3z"/></clipPath><clipPath id="swe-at"><path transform="translate(-926.23,-726.18)" d="m0 2e3h2e3v-2e3h-2e3z"/></clipPath><clipPath id="swe-as"><path transform="translate(-954.47,-722.92)" d="m0 2e3h2e3v-2e3h-2e3z"/></clipPath><clipPath id="swe-ar"><path transform="translate(-984.64,-722.85)" d="m0 2e3h2e3v-2e3h-2e3z"/></clipPath><clipPath id="swe-aq"><path transform="translate(-1022.7,-701.25)" d="m0 2e3h2e3v-2e3h-2e3z"/></clipPath><clipPath id="swe-ao"><path transform="translate(-1053.3,-736.02)" d="m0 2e3h2e3v-2e3h-2e3z"/></clipPath><clipPath id="swe-am"><path transform="translate(-1093.4,-723.22)" d="m0 2e3h2e3v-2e3h-2e3z"/></clipPath><clipPath id="swe-al"><path transform="translate(-1120.7,-743.43)" d="m0 2e3h2e3v-2e3h-2e3z"/></clipPath><clipPath id="swe-ak"><path transform="translate(-1164.8,-760.08)" d="m0 2e3h2e3v-2e3h-2e3z"/></clipPath><clipPath id="swe-aj"><path transform="translate(-1172.2,-799.06)" d="m0 2e3h2e3v-2e3h-2e3z"/></clipPath><clipPath id="swe-ai"><path transform="translate(-1199.3,-802.44)" d="m0 2e3h2e3v-2e3h-2e3z"/></clipPath><clipPath id="swe-ah"><path transform="translate(-1215.1,-834.51)" d="m0 2e3h2e3v-2e3h-2e3z"/></clipPath><clipPath id="swe-ag"><path transform="translate(-1235.8,-864.6)" d="m0 2e3h2e3v-2e3h-2e3z"/></clipPath><clipPath id="swe-af"><path transform="translate(-1226.8,-892.4)" d="m0 2e3h2e3v-2e3h-2e3z"/></clipPath><clipPath id="swe-ae"><path transform="translate(-1260.6,-907.06)" d="m0 2e3h2e3v-2e3h-2e3z"/></clipPath><clipPath id="swe-ac"><path transform="translate(-1239.7,-964.92)" d="m0 2e3h2e3v-2e3h-2e3z"/></clipPath><clipPath id="swe-ab"><path transform="translate(-679.51,-995.09)" d="m0 2e3h2e3v-2e3h-2e3z"/></clipPath><clipPath id="swe-aa"><path transform="translate(-1256.4,-995.09)" d="m0 2e3h2e3v-2e3h-2e3z"/></clipPath></defs><g transform="translate(-.018312 -.037531)"><g transform="translate(-857.19,-905.3)"><path transform="matrix(1.3333,0,0,-1.3333,1723,1339.9)" d="m0 0c0-178.63-144.81-323.43-323.43-323.43-178.63 0-323.43 144.8-323.43 323.43s144.81 323.43 323.43 323.43c178.63 0 323.43-144.81 323.43-323.43z" clip-path="url(#swe-cf)" fill="none" stroke="#293481" stroke-miterlimit="10" stroke-width="5"/><path transform="matrix(1.3333,0,0,-1.3333,1629,1339.9)" d="m0 0c0-139.68-113.23-252.91-252.91-252.91s-252.91 113.23-252.91 252.91 113.23 252.91 252.91 252.91 252.91-113.23 252.91-252.91z" clip-path="url(#swe-u)" fill="none" stroke="#293481" stroke-miterlimit="10" stroke-width="5"/><g fill="#f78f1e"><path transform="matrix(1.3333,0,0,-1.3333,1256,1319.4)" d="m0 0-26.564-10.057 26.564-10.056v-14.61l-42.692 18.5v12.333l42.692 18.5z" clip-path="url(#swe-q)"/><path transform="matrix(1.3333,0,0,-1.3333,1264.8,1389.7)" d="m 0,0 37.949,85.384 h 5.692 L 5.693,0 Z" clip-path="url(#swe-fc)"/><path transform="matrix(1.3333,0,0,-1.3333,1388.8,1324.6)" d="m0 0v-12.333l-42.692-18.5v14.609l26.564 10.057-26.564 10.057v14.61z" clip-path="url(#swe-c)"/></g><path transform="matrix(1.3333,0,0,-1.3333,1492.9,1522.4)" d="m0 0v-0.045l-17.292-0.046h-6.962l-14.516-0.045-18.975-0.046-14.244-0.045-139.29-0.273-51.33-0.137-14.471-0.045-24.8-0.046 5.279 12.15 2.002 4.596 3.913 9.055 4.687 10.83 3.14 7.281 11.24 25.938h240.86l11.558-25.938 3.185-7.235 2.867-6.462 1.911-4.323 6.052-13.515z" clip-path="url(#swe-hh)" fill="#4077bc"/><g fill="#293481"><path transform="matrix(1.3333,0,0,-1.3333,1105.4,1514)" d="m0 0 23.381 55.817h232.08l23.918-55.156z" clip-path="url(#swe-gr)"/><path transform="matrix(1.3333,0,0,-1.3333,1492.9,1522.4)" d="m0 0v-0.045c-0.683-6.872-6.325-12.742-13.97-12.742l-27.258-0.136-17.201-0.091-24.208-0.137h-0.136l-21.524-0.091-91.829-0.455-21.387-0.091h-0.137l-24.344-0.136-17.201-0.091-28.623-0.137c-7.918 0-13.742 6.28-14.061 13.424l24.8 0.046 14.471 0.045 18.93 0.045h0.045l14.243 0.046h0.046l38.042 0.091 119.36 0.273 14.288 0.046 18.93 0.045 14.516 0.046z" clip-path="url(#swe-gc)"/><path transform="matrix(1.3333,0,0,-1.3333,1452,1242.5)" d="m0 0v-18.338l-0.137-0.046v-0.091l-10.375-4.459v22.252c0 0.273-0.045 0.546-0.091 0.773-0.227 0.956-0.819 1.729-1.683 2.184-0.137 0.091-0.319 0.182-0.501 0.273-0.046 0-0.046 0-0.091 0.046-0.364 0.136-0.773 0.227-1.183 0.227h-212.87c-0.454 0-0.864-0.091-1.228-0.273-0.408-0.136-0.729-0.422-1.047-0.702-0.651-0.676-1.092-1.555-1.092-2.528v-22.525l-0.136 0.045-10.421 4.46v18.02c0 5.46 3.14 10.238 7.782 12.604 0.045 0.046 0.045 0.046 0.091 0.046 1.046 0.5 2.138 0.91 3.322 1.137h0.045c0.864 0.183 1.774 0.273 2.684 0.273h212.87c0.956 0 1.866-0.09 2.73-0.273h0.046c0.455-0.136 0.864-0.227 1.32-0.364 0.409-0.136 0.864-0.273 1.274-0.455 4.914-2.002 8.418-6.689 8.691-12.286" clip-path="url(#swe-fm)"/><path transform="matrix(1.3333,0,0,-1.3333,1438,1270.9)" d="m0 0h10.512v-119.52h-240.86v121.93h10.557v-111.37h219.79z" clip-path="url(#swe-ex)"/><path transform="matrix(1.3333,0,0,-1.3333,1131.1,1243.4)" d="m0 0v-22.525h10.512v22.525c0 0.982 0.446 1.872 1.151 2.55 0.165 0.133 0.292 0.305 0.486 0.408 0.137 0.091 0.319 0.182 0.501 0.273 0.046 0 0.046 0 0.092 0.045 0.363 0.137 0.773 0.228 1.183 0.228h8.19c2.139 1.456 5.37 2.866 10.103 4.232v-0.137h168.73v2.002c9.192-1.911 14.607-3.959 17.747-6.097h8.1c0.455 0 0.865-0.091 1.228-0.273 1.093-0.364 1.912-1.32 2.185-2.457 0.045-0.228 0.091-0.501 0.091-0.774v-22.479l10.42-0.046 0.137 4.732v17.793c0 0.227 0 0.455-0.046 0.682-0.273 5.279-3.367 9.784-7.872 11.923-0.046 0.045-0.046 0.045-0.091 0.045-1.047 0.501-2.139 0.91-3.322 1.138h-0.046c-0.864 0.182-1.774 0.273-2.684 0.273h-212.87c-0.956 0-1.866-0.091-2.731-0.273h-0.046c-0.455-0.137-0.864-0.228-1.319-0.364-0.409-0.137-0.865-0.273-1.274-0.455-5.006-2.139-8.555-7.19-8.555-12.969" clip-path="url(#swe-ei)"/><path transform="matrix(1.3333,0,0,-1.3333,1543.4,1228.3)" d="m0 0-0.638-0.273-12.468-5.324-3.958-1.684-5.871-2.503-6.552-2.775-31.945-13.606v15.881c-0.546 11.194-9.784 20.022-21.069 20.022h-212.74c-11.603 0-21.068-9.465-21.068-21.069v-14.834l-31.808 13.56-6.553 2.776-9.783 4.187-8.327 3.549-4.187 1.774-0.773 0.319 1.092 0.455 17.928 7.645 5.962 2.548 9.192 3.914h0.045l6.143 2.639 4.869 2.093 6.416 2.73 137.24 58.474 137.42-58.565 6.371-2.73 4.823-2.048 6.19-2.639 9.282-3.959 5.961-2.548 17.929-7.645z" clip-path="url(#swe-ds)"/></g><g fill="#f78f1e"><path transform="matrix(1.3333,0,0,-1.3333,1559.3,1333.5)" d="m0 0c-0.409-1.593-1.683-2.867-3.322-3.276h-0.045c-0.728-0.182-1.411-0.273-2.185-0.364-0.318 0-0.636 0-0.955-0.046-0.364 0-0.683 0-1.001 0.046-0.728 0-1.456 0.136-2.138 0.273h-0.046c-0.046 0-0.046 0-0.091 0.045-2.23 0.501-3.732 2.594-3.504 4.869l2.184 22.525 0.728 7.144c0.091 0.865 0.774 1.502 1.638 1.547-0.818 0.137-1.41 0.729-1.456 1.548l0.046 0.136c0 0.364 0.091 0.683 0.318 0.956 0.228 0.364 0.637 0.591 1.092 0.637-0.818 0.045-1.456 0.728-1.502 1.501l0.046 0.137c0 0.364 0.091 0.637 0.273 0.91h0.046c0.182 0.364 0.636 0.637 1.137 0.683-0.864 0.045-1.502 0.682-1.547 1.547v0.091c0 0.318 0.091 0.637 0.319 0.864 0.227 0.456 0.637 0.683 1.183 0.729-0.819 0.045-1.502 0.682-1.502 1.547v0.136c0 0.273 0.045 0.501 0.182 0.728 0.228 0.501 0.774 0.819 1.365 0.819l0.183 0.046-0.274 22.115v0.046l-0.045 2.184-0.091 7.736-0.091 4.186-5.78 2.457-6.052 2.594-12.513 5.324-15.927 6.826h-0.045l-11.558 4.914-139.84 59.657-139.61-59.475-11.649-4.959-15.836-6.735h-0.045l-12.468-5.324-6.098-2.594c1.274 3.094 2.639 6.189 4.095 9.237l6.462 2.776 13.333 5.688 17.383 7.372 13.196 5.643 131.24 55.925 131.46-56.107 13.151-5.597 17.428-7.463h0.046l13.288-5.643 6.461-2.775 9.784-4.187 0.409-0.182 0.183-0.091 2.229-0.91 0.046-2.958 0.045-4.596 0.046-4.369 0.09-7.69 0.137-11.285 0.182-11.74h0.182c0.865 0.045 1.593-0.683 1.593-1.547v-0.091c0-0.865-0.638-1.547-1.502-1.593 0.864 0 1.548-0.683 1.548-1.547v-0.091c0-0.865-0.684-1.593-1.548-1.593 0.864 0 1.593-0.683 1.593-1.547v-0.091c0-0.865-0.638-1.547-1.456-1.638 0.818 0 1.502-0.683 1.502-1.502v-0.136c0-0.774-0.592-1.502-1.366-1.593 0.865 0 1.547-0.683 1.639-1.502l0.909-7.144 2.776-22.115 0.046-0.319c0.091-0.591 0-1.183-0.137-1.729" clip-path="url(#swe-dd)"/><path transform="matrix(1.3333,0,0,-1.3333,1134,1481.1)" d="m0 0c-1.957 0.228-2.275 0.41-2.275 0.592 0 0.227 0.455 0.364 1.365 0.364 1.137 0 1.729-0.182 2.139-0.546l2.457 0.546c-0.91 0.728-2.548 1.092-4.596 1.092-1.274 0-2.503-0.182-3.277-0.546h-0.045c-0.546-0.228-0.91-0.546-0.91-0.91 0-0.819 1.456-1.184 3.139-1.365h0.046c0.137-0.046 0.319-0.092 0.501-0.092 1.911-0.182 2.594-0.318 2.594-0.591 0-0.228-0.319-0.409-1.684-0.409h-0.364c-1.183 0.045-1.866 0.318-2.276 0.682l-2.502-0.546c0.728-0.728 2.412-1.183 5.051-1.183 0.273 0 0.501 0 0.774 0.045 2.32 0.046 3.913 0.592 3.913 1.411 0 1.001-2.139 1.274-4.05 1.456" clip-path="url(#swe-cn)"/><path transform="matrix(1.3333,0,0,-1.3333,1150.2,1478.5)" d="m0 0v-3.14c0-0.364-0.41-0.683-1.957-0.683s-1.957 0.319-1.957 0.683v3.14h-2.912v-3.231c0-1.047 2.093-1.638 4.869-1.638s4.869 0.591 4.869 1.638v3.231z" clip-path="url(#swe-bz)"/><path transform="matrix(1.3333,0,0,-1.3333,1163.6,1481.1)" d="m0 0c-1.956 0.228-2.275 0.41-2.275 0.592 0 0.227 0.455 0.364 1.365 0.364 1.138 0 1.729-0.182 2.139-0.546l2.457 0.546c-0.91 0.728-2.548 1.092-4.596 1.092-2.184 0-4.232-0.546-4.232-1.456s1.82-1.274 3.686-1.457c1.912-0.182 2.639-0.318 2.639-0.591 0-0.228-0.364-0.409-1.729-0.409-1.41 0-2.184 0.272-2.639 0.682l-2.503-0.546c0.728-0.728 2.412-1.183 5.051-1.183 2.73 0 4.687 0.546 4.687 1.456 0 1.001-2.139 1.274-4.05 1.456" clip-path="url(#swe-bm)"/><path transform="matrix(1.3333,0,0,-1.3333,1169.1,1478.5)" d="m0 0v-1.047h3.231v-3.731h2.866v3.731h3.231v1.047z" clip-path="url(#swe-bb)"/><path transform="matrix(1.3333,0,0,-1.3333,1186.8,1482.5)" d="m0 0 1.501 1.729 1.456-1.729zm3.322 3.004h-3.641l-4.277-4.779h3.139l0.638 0.728h4.641l0.637-0.728h3.14z" clip-path="url(#swe-ap)"/><path transform="matrix(1.3333,0,0,-1.3333,0,2666.7)" d="m898.77 886.38h2.867v4.778h-2.867z" clip-path="url(#swe-ad)"/><path transform="matrix(1.3333,0,0,-1.3333,1214.4,1478.5)" d="m0 0v-2.594l-4.869 2.594h-2.138v-4.778h2.866v2.594l4.869-2.594h2.139v4.778z" clip-path="url(#swe-z)"/><path transform="matrix(1.3333,0,0,-1.3333,1225.9,1482.5)" d="m0 0 1.456 1.729 1.501-1.729zm3.276 3.004h-3.64l-4.278-4.779h3.14l0.638 0.728h4.641l0.637-0.728h3.139z" clip-path="url(#swe-y)"/><path transform="matrix(1.3333,0,0,-1.3333,1244.5,1483.5)" d="m0 0h-2.412v0.91h2.412c0.728 0 1.183-0.182 1.183-0.455s-0.455-0.455-1.183-0.455m-2.412 2.73h2.093c0.637 0 1.092-0.182 1.092-0.409 0-0.273-0.455-0.41-1.092-0.41h-2.093zm4.96-1.274c0.683 0.228 1.092 0.546 1.092 0.956 0 0.819-1.775 1.365-3.959 1.365h-4.96v-4.778h5.279c2.275 0 4.095 0.546 4.095 1.365 0 0.501-0.637 0.864-1.547 1.092" clip-path="url(#swe-x)"/><path transform="matrix(1.3333,0,0,-1.3333,1255.7,1483.4)" d="m0 0v3.731h-2.912v-4.778h7.372v1.047z" clip-path="url(#swe-w)"/><path transform="matrix(1.3333,0,0,-1.3333,1267.2,1483.4)" d="m0 0v0.819h4.505v1.047h-4.505v0.819h4.96v1.046h-7.827v-4.778h7.917v1.047z" clip-path="url(#swe-v)"/><path transform="matrix(1.3333,0,0,-1.3333,1288.8,1483.4)" d="m0 0h-2.139v2.685h2.139c1.957 0 3.322-0.547 3.322-1.365 0-0.82-1.365-1.32-3.322-1.32m0 3.731h-5.051v-4.778h5.051c3.458 0 6.098 1.001 6.098 2.367 0 1.365-2.64 2.411-6.098 2.411" clip-path="url(#swe-t)"/><path transform="matrix(1.3333,0,0,-1.3333,1302.9,1483.4)" d="m0 0v0.819h4.505v1.047h-4.505v0.819h4.96v1.046h-7.826v-4.778h7.918v1.047z" clip-path="url(#swe-hu)"/><path transform="matrix(1.3333,0,0,-1.3333,1321.9,1478.5)" d="m0 0-2.776-3.55-2.776 3.55h-3.14l4.096-4.778h3.64l4.141 4.778z" clip-path="url(#swe-gt)"/><path transform="matrix(1.3333,0,0,-1.3333,1331.5,1483.4)" d="m0 0v0.819h4.46v1.047h-4.46v0.819h4.915v1.046h-7.827v-4.778h7.918v1.047z" clip-path="url(#swe-fs)"/><path transform="matrix(1.3333,0,0,-1.3333,1344.2,1483.4)" d="m0 0v3.731h-2.867v-4.778h7.372v1.047z" clip-path="url(#swe-er)"/><path transform="matrix(1.3333,0,0,-1.3333,1358.9,1483.6)" d="m0 0c-2.047 0-3.686 0.546-3.686 1.411 0 0.864 1.639 1.41 3.686 1.41 2.048 0 3.641-0.546 3.641-1.41 0-0.865-1.593-1.411-3.641-1.411m0 3.913c-3.64 0-6.552-1.092-6.552-2.502 0-1.411 2.912-2.458 6.552-2.458 3.595 0 6.508 1.047 6.508 2.458 0 1.41-2.913 2.502-6.508 2.502" clip-path="url(#swe-dq)"/><path transform="matrix(1.3333,0,0,-1.3333,1376.1,1481.5)" d="m0 0h-1.911v1.229h1.911c0.864 0 1.502-0.273 1.502-0.592 0-0.364-0.638-0.637-1.502-0.637m0 2.275h-4.778v-4.778h2.867v1.502h1.911c2.457 0 4.414 0.728 4.414 1.638s-1.957 1.638-4.414 1.638" clip-path="url(#swe-cp)"/><path transform="matrix(1.3333,0,0,-1.3333,1396.9,1478.5)" d="m0 0-3.413-2.139-3.413 2.139h-2.912v-4.778h2.912v2.776l3.232-2.048h0.318l3.276 2.048v-2.776h2.867v4.778z" clip-path="url(#swe-bo)"/><path transform="matrix(1.3333,0,0,-1.3333,1407.4,1483.4)" d="m0 0v0.819h4.459v1.047h-4.459v0.819h4.915v1.046h-7.781v-4.778h7.872v1.047z" clip-path="url(#swe-an)"/><path transform="matrix(1.3333,0,0,-1.3333,1425.6,1478.5)" d="m0 0v-2.594l-4.869 2.594h-2.138v-4.778h2.866v2.594l4.87-2.594h2.138v4.778z" clip-path="url(#swe-r)"/><path transform="matrix(1.3333,0,0,-1.3333,1431.2,1478.5)" d="m0 0v-1.047h3.231v-3.731h2.866v3.731h3.231v1.047z" clip-path="url(#swe-p)"/><path transform="matrix(1.3333,0,0,-1.3333,1156,1494.4)" d="m0 0v0.865h4.505v1.046h-4.505v0.774h4.96v1.046h-7.827v-4.778h7.918v1.047z" clip-path="url(#swe-o)"/><path transform="matrix(1.3333,0,0,-1.3333,1177.9,1489.4)" d="m0 0-3.413-2.139-3.413 2.139h-2.913v-4.778h2.913v2.776l3.231-2.002h0.318l3.277 2.002v-2.776h2.866v4.778z" clip-path="url(#swe-n)"/><path transform="matrix(1.3333,0,0,-1.3333,1190.9,1492.3)" d="m0 0h-1.865v1.229h1.865c0.91 0 1.547-0.273 1.547-0.637 0-0.365-0.637-0.592-1.547-0.592m0 2.23h-4.733v-4.778h2.868v1.501h1.865c2.503 0 4.414 0.728 4.414 1.639 0 0.91-1.911 1.638-4.414 1.638" clip-path="url(#swe-m)"/><path transform="matrix(1.3333,0,0,-1.3333,1206.6,1494.5)" d="m0 0c-2.048 0-3.686 0.591-3.686 1.456 0 0.819 1.638 1.411 3.686 1.411 2.047 0 3.64-0.592 3.64-1.411 0-0.865-1.593-1.456-3.64-1.456m0 3.913c-3.641 0-6.553-1.092-6.553-2.457 0-1.411 2.912-2.503 6.553-2.503 3.594 0 6.507 1.092 6.507 2.503 0 1.365-2.913 2.457-6.507 2.457" clip-path="url(#swe-l)"/><path transform="matrix(1.3333,0,0,-1.3333,1235,1489.4)" d="m0 0-2.184-3.322-2.457 3.322h-2.321l-2.412-3.322-2.184 3.322h-3.003l3.458-4.778h3.276l2.048 2.821 2.047-2.821h3.276l3.459 4.778z" clip-path="url(#swe-k)"/><path transform="matrix(1.3333,0,0,-1.3333,1244.5,1494.4)" d="m0 0v0.865h4.505v1.046h-4.505v0.774h4.959v1.046h-7.826v-4.778h7.917v1.047z" clip-path="url(#swe-j)"/><path transform="matrix(1.3333,0,0,-1.3333,1260.1,1492.3)" d="m0 0h-2.139v1.229h2.139c0.774 0 1.456-0.273 1.456-0.637 0-0.365-0.682-0.592-1.456-0.592m2.003-0.773c1.364 0.227 2.32 0.773 2.32 1.365 0 0.91-1.957 1.638-4.323 1.638h-5.051v-4.778h2.912v1.593h1.365l2.366-1.593h3.095z" clip-path="url(#swe-i)"/><path transform="matrix(1.3333,0,0,-1.3333,0,2666.7)" d="m951.1 878.19h2.912v4.778h-2.912z" clip-path="url(#swe-hg)"/><path transform="matrix(1.3333,0,0,-1.3333,1284.2,1489.4)" d="m0 0v-2.594l-4.869 2.594h-2.138v-4.778h2.866v2.594l4.869-2.594h2.139v4.778z" clip-path="url(#swe-ge)"/><path transform="matrix(1.3333,0,0,-1.3333,1299.1,1492.2)" d="m0 0v-0.956h3.367c-0.455-0.455-1.547-0.773-3.231-0.773-2.457 0-3.959 0.591-3.959 1.41 0 0.865 1.593 1.457 3.732 1.457 1.41 0 2.548-0.273 3.048-0.592l2.458 0.546c-1.047 0.637-3.094 1.092-5.506 1.092-3.686 0-6.599-1.092-6.599-2.503 0-1.365 2.822-2.457 6.781-2.457 3.549 0 6.234 0.865 6.234 2.366v0.41z" clip-path="url(#swe-ea)"/><path transform="matrix(1.3333,0,0,-1.3333,1324.8,1489.4)" d="m0 0v-1.82h-3.959v1.82h-2.867v-4.778h2.867v1.911h3.959v-1.911h2.866v4.778z" clip-path="url(#swe-cy)"/><path transform="matrix(1.3333,0,0,-1.3333,1340.5,1489.4)" d="m0 0v-3.14c0-0.364-0.455-0.682-1.957-0.682-1.547 0-2.002 0.318-2.002 0.682v3.14h-2.867v-3.231c0-1.047 2.093-1.638 4.869-1.638s4.824 0.591 4.824 1.638v3.231z" clip-path="url(#swe-bw)"/><path transform="matrix(1.3333,0,0,-1.3333,1360.1,1489.4)" d="m0 0-3.413-2.139-3.413 2.139h-2.867v-4.778h2.867v2.776l3.277-2.002h0.318l3.231 2.002v-2.776h2.867v4.778z" clip-path="url(#swe-au)"/><path transform="matrix(1.3333,0,0,-1.3333,1371.5,1493.4)" d="m0 0 1.502 1.775 1.455-1.775zm3.322 3.003h-3.686l-4.278-4.778h3.14l0.638 0.774h4.686l0.637-0.774h3.14z" clip-path="url(#swe-s)"/><path transform="matrix(1.3333,0,0,-1.3333,1392.5,1489.4)" d="m0 0v-2.594l-4.869 2.594h-2.139v-4.778h2.867v2.594l4.869-2.594h2.139v4.778z" clip-path="url(#swe-h)"/><path transform="matrix(1.3333,0,0,-1.3333,0,2666.7)" d="m1049.4 878.19h2.866v4.778h-2.866z" clip-path="url(#swe-g)"/><path transform="matrix(1.3333,0,0,-1.3333,1404.7,1489.4)" d="m0 0v-1.047h3.231v-3.731h2.867v3.731h3.231v1.047z" clip-path="url(#swe-f)"/><path transform="matrix(1.3333,0,0,-1.3333,1428.1,1489.4)" d="m0 0-2.412-1.82-2.366 1.82h-3.276l4.231-2.958v-1.82h2.867v1.82l4.232 2.958z" clip-path="url(#swe-e)"/></g><g clip-path="url(#swe-b)" opacity=".89999"><path transform="matrix(1.3333,0,0,-1.3333,1428.4,1444.5)" d="m0 0h7.974c0.905 0 1.818-0.433 2.054-0.996 0.495-1.179 1.063-2.352 1.602-3.579 0.228-0.518-0.348-0.996-1.254-0.996h-8.148c-0.94 0-1.839 0.457-2.054 0.996-0.481 1.204-0.975 2.387-1.428 3.579-0.208 0.55 0.349 0.996 1.254 0.996" clip-path="url(#swe-d)" fill="#fff" fill-rule="evenodd"/></g><g clip-path="url(#swe-ht)" opacity=".89999"><path transform="matrix(1.3333,0,0,-1.3333,1432.6,1453.7)" d="m0 0h7.416c1.15 0 2.309-0.53 2.612-1.214 0.707-1.598 1.436-3.221 2.159-4.855 0.287-0.648-0.453-1.213-1.602-1.213h-7.626c-1.184 0-2.355 0.569-2.611 1.213-0.65 1.638-1.279 3.252-1.915 4.855-0.27 0.679 0.418 1.214 1.567 1.214" clip-path="url(#swe-a)" fill="#fff" fill-rule="evenodd"/></g><g clip-path="url(#swe-hr)" opacity=".89999"><path transform="matrix(1.3333,0,0,-1.3333,1437.2,1465)" d="m0 0h7.661c1.184 0 2.392-0.568 2.681-1.224 0.721-1.636 1.39-3.241 2.124-4.844 0.31-0.679-0.418-1.224-1.637-1.224h-7.869c-1.219 0-2.403 0.549-2.681 1.224-0.662 1.607-1.253 3.228-1.915 4.844-0.277 0.676 0.452 1.224 1.636 1.224" clip-path="url(#swe-hs)" fill="#fff" fill-rule="evenodd"/></g><g clip-path="url(#swe-hp)" opacity=".89999"><path transform="matrix(1.3333,0,0,-1.3333,1409.7,1444.5)" d="m0 0h7.974c0.905 0 1.818-0.435 2.02-0.996 0.425-1.182 0.926-2.351 1.392-3.579 0.197-0.518-0.383-0.996-1.323-0.996h-8.148c-0.905 0-1.802 0.458-1.985 0.996-0.409 1.205-0.871 2.385-1.253 3.579-0.176 0.548 0.418 0.996 1.323 0.996" clip-path="url(#swe-hq)" fill="#fff" fill-rule="evenodd"/></g><g clip-path="url(#swe-hn)" opacity=".89999"><path transform="matrix(1.3333,0,0,-1.3333,1395.8,1453.7)" d="m0 0h20.474c1.219 0 2.442-0.576 2.717-1.296 0.595-1.562 1.201-3.16 1.81-4.689 0.297-0.744-0.522-1.297-1.776-1.297h-21.032c-1.253 0-2.463 0.548-2.681 1.297-0.444 1.526-0.904 3.124-1.357 4.689-0.208 0.717 0.626 1.296 1.845 1.296" clip-path="url(#swe-ho)" fill="#fff" fill-rule="evenodd"/></g><g clip-path="url(#swe-hl)" opacity=".89999"><path transform="matrix(1.3333,0,0,-1.3333,1412.1,1465)" d="m0 0h11.421c1.254 0 2.525-0.561 2.821-1.307 0.61-1.538 1.188-3.115 1.811-4.678 0.282-0.709-0.558-1.307-1.846-1.307h-11.734c-1.324 0-2.525 0.566-2.786 1.307-0.54 1.531-1.008 3.115-1.532 4.678-0.241 0.719 0.592 1.307 1.845 1.307" clip-path="url(#swe-hm)" fill="#fff" fill-rule="evenodd"/></g><g clip-path="url(#swe-hj)" opacity=".89999"><path transform="matrix(1.3333,0,0,-1.3333,1429.3,1499.2)" d="m0 0h8.427c1.288 0 2.551-0.535 2.82-1.214 0.636-1.603 1.233-3.214 1.881-4.854 0.257-0.653-0.627-1.214-1.951-1.214h-8.6c-1.289 0-2.524 0.564-2.751 1.214-0.574 1.644-1.135 3.255-1.671 4.854-0.23 0.684 0.592 1.214 1.845 1.214" clip-path="url(#swe-hk)" fill="#fff" fill-rule="evenodd"/></g><g clip-path="url(#swe-hf)" opacity=".89999"><path transform="matrix(1.3333,0,0,-1.3333,1392.4,1444.5)" d="m0 0h6.894c0.906 0 1.775-0.448 1.95-0.996 0.382-1.194 0.827-2.351 1.219-3.579 0.166-0.518-0.452-0.996-1.358-0.996h-7.068c-0.906 0-1.792 0.468-1.95 0.996-0.365 1.216-0.716 2.404-1.045 3.579-0.159 0.568 0.453 0.996 1.358 0.996" clip-path="url(#swe-hi)" fill="#fff" fill-rule="evenodd"/></g><g clip-path="url(#swe-hd)" opacity=".89999"><path transform="matrix(1.3333,0,0,-1.3333,1374.7,1444.5)" d="m0 0h6.895c0.905 0 1.773-0.449 1.915-0.996 0.31-1.196 0.698-2.341 1.044-3.579 0.144-0.512-0.522-0.996-1.427-0.996h-7.034c-0.94 0-1.788 0.467-1.915 0.996-0.291 1.215-0.611 2.4-0.871 3.579-0.123 0.564 0.488 0.996 1.393 0.996" clip-path="url(#swe-he)" fill="#fff" fill-rule="evenodd"/></g><g clip-path="url(#swe-hb)" opacity=".89999"><path transform="matrix(1.3333,0,0,-1.3333,1357.1,1444.5)" d="m0 0h6.894c0.906 0 1.757-0.432 1.881-0.996 0.259-1.179 0.516-2.392 0.8-3.579 0.133-0.555-0.522-0.996-1.462-0.996h-7.034c-0.905 0-1.736 0.451-1.845 0.996-0.239 1.196-0.483 2.39-0.697 3.579-0.099 0.553 0.558 0.996 1.463 0.996" clip-path="url(#swe-hc)" fill="#fff" fill-rule="evenodd"/></g><g clip-path="url(#swe-gz)" opacity=".89999"><path transform="matrix(1.3333,0,0,-1.3333,1339.5,1444.5)" d="m0 0h6.894c0.906 0 1.722-0.436 1.811-0.996 0.189-1.183 0.388-2.383 0.627-3.579 0.109-0.545-0.557-0.996-1.497-0.996h-7.034c-0.906 0-1.725 0.456-1.811 0.996-0.193 1.204-0.355 2.382-0.522 3.579-0.077 0.546 0.626 0.996 1.532 0.996" clip-path="url(#swe-ha)" fill="#fff" fill-rule="evenodd"/></g><g clip-path="url(#swe-gx)" opacity=".89999"><path transform="matrix(1.3333,0,0,-1.3333,1321.9,1444.5)" d="m0 0h6.86c0.905 0 1.709-0.444 1.775-0.996 0.143-1.191 0.343-2.37 0.488-3.579 0.064-0.539-0.662-0.996-1.567-0.996h-7.069c-0.905 0-1.687 0.453-1.741 0.996-0.12 1.202-0.218 2.394-0.313 3.579-0.045 0.56 0.661 0.996 1.567 0.996" clip-path="url(#swe-gy)" fill="#fff" fill-rule="evenodd"/></g><g clip-path="url(#swe-gv)" opacity=".89999"><path transform="matrix(1.3333,0,0,-1.3333,1304.3,1444.5)" d="m0 0h6.894c0.906 0 1.708-0.433 1.742-0.996 0.071-1.186 0.148-2.383 0.244-3.579 0.043-0.546-0.697-0.996-1.602-0.996h-7.034c-0.94 0-1.674 0.446-1.706 0.996-0.072 1.193-0.116 2.385-0.14 3.579-0.011 0.549 0.697 0.996 1.602 0.996" clip-path="url(#swe-gw)" fill="#fff" fill-rule="evenodd"/></g><g clip-path="url(#swe-gs)" opacity=".89999"><path transform="matrix(1.3333,0,0,-1.3333,1286.7,1444.5)" d="m0 0h6.894c0.906 0 1.661-0.442 1.672-0.996 0.024-1.192 0.046-2.385 0.07-3.579 0.01-0.549-0.697-0.996-1.637-0.996h-7.034c-0.94 0-1.671 0.447-1.671 0.996 0 1.194-0.013 2.389 0.035 3.579 0.022 0.553 0.766 0.996 1.671 0.996" clip-path="url(#swe-gu)" fill="#fff" fill-rule="evenodd"/></g><g clip-path="url(#swe-gp)" opacity=".89999"><path transform="matrix(1.3333,0,0,-1.3333,1269.1,1444.5)" d="m0 0h6.894c0.906 0 1.624-0.443 1.602-0.996-0.047-1.19-0.046-2.387-0.069-3.579-0.011-0.553-0.801-0.996-1.742-0.996h-7.033c-0.906 0-1.624 0.444-1.602 0.996 0.047 1.192 0.148 2.383 0.244 3.579 0.043 0.547 0.8 0.996 1.706 0.996" clip-path="url(#swe-gq)" fill="#fff" fill-rule="evenodd"/></g><g clip-path="url(#swe-gn)" opacity=".89999"><path transform="matrix(1.3333,0,0,-1.3333,1251.5,1444.5)" d="m0 0h6.894c0.906 0 1.623-0.44 1.568-0.996-0.119-1.187-0.183-2.383-0.279-3.579-0.043-0.546-0.836-0.996-1.741-0.996h-7.068c-0.906 0-1.599 0.445-1.533 0.996 0.143 1.192 0.275 2.389 0.418 3.579 0.066 0.552 0.836 0.996 1.741 0.996" clip-path="url(#swe-go)" fill="#fff" fill-rule="evenodd"/></g><g clip-path="url(#swe-gl)" opacity=".89999"><path transform="matrix(1.3333,0,0,-1.3333,1233.9,1444.5)" d="m0 0h6.859c0.906 0 1.609-0.45 1.533-0.996-0.168-1.197-0.345-2.387-0.488-3.579-0.066-0.551-0.871-0.996-1.776-0.996h-7.034c-0.94 0-1.621 0.436-1.532 0.996 0.19 1.184 0.379 2.39 0.592 3.579 0.1 0.553 0.94 0.996 1.846 0.996" clip-path="url(#swe-gm)" fill="#fff" fill-rule="evenodd"/></g><g clip-path="url(#swe-gj)" opacity=".89999"><path transform="matrix(1.3333,0,0,-1.3333,1216.3,1444.5)" d="m0 0h6.894c0.906 0 1.563-0.443 1.463-0.996-0.214-1.189-0.437-2.396-0.627-3.579-0.089-0.56-0.94-0.996-1.88-0.996h-7.034c-0.94 0-1.586 0.432-1.462 0.996 0.259 1.179 0.507 2.4 0.766 3.579 0.124 0.564 0.975 0.996 1.88 0.996" clip-path="url(#swe-gk)" fill="#fff" fill-rule="evenodd"/></g><g clip-path="url(#swe-gh)" opacity=".89999"><path transform="matrix(1.3333,0,0,-1.3333,1198.7,1444.5)" d="m0 0h6.859c0.906 0 1.561-0.441 1.428-0.996-0.284-1.186-0.57-2.373-0.836-3.579-0.118-0.538-0.975-0.996-1.915-0.996h-7.034c-0.905 0-1.554 0.467-1.427 0.996 0.291 1.215 0.673 2.374 1.01 3.579 0.15 0.538 1.009 0.996 1.915 0.996" clip-path="url(#swe-gi)" fill="#fff" fill-rule="evenodd"/></g><g clip-path="url(#swe-gf)" opacity=".89999"><path transform="matrix(1.3333,0,0,-1.3333,1181,1444.5)" d="m0 0h6.894c0.941 0 1.517-0.428 1.359-0.996-0.329-1.175-0.7-2.383-1.01-3.579-0.142-0.546-1.01-0.996-1.95-0.996h-7.069c-0.905 0-1.498 0.449-1.323 0.996 0.382 1.194 0.751 2.407 1.149 3.579 0.194 0.572 1.045 0.996 1.95 0.996" clip-path="url(#swe-gg)" fill="#fff" fill-rule="evenodd"/></g><g clip-path="url(#swe-gb)" opacity=".89999"><path transform="matrix(1.3333,0,0,-1.3333,1163.4,1444.5)" d="m0 0h6.894c0.906 0 1.506-0.458 1.324-0.996-0.409-1.205-0.837-2.385-1.219-3.579-0.175-0.547-1.079-0.996-1.984-0.996h-7.034c-0.941 0-1.525 0.436-1.324 0.996 0.425 1.183 0.898 2.397 1.324 3.579 0.201 0.561 1.114 0.996 2.019 0.996" clip-path="url(#swe-gd)" fill="#fff" fill-rule="evenodd"/></g><g clip-path="url(#swe-fz)" opacity=".89999"><path transform="matrix(1.3333,0,0,-1.3333,1143.6,1444.5)" d="m0 0h7.974c0.905 0 1.462-0.446 1.253-0.996-0.452-1.192-0.94-2.386-1.392-3.579-0.209-0.549-1.115-0.996-2.055-0.996h-8.148c-0.905 0-1.469 0.457-1.254 0.996 0.481 1.204 1.044 2.389 1.567 3.579 0.243 0.552 1.15 0.996 2.055 0.996" clip-path="url(#swe-ga)" fill="#fff" fill-rule="evenodd"/></g><g clip-path="url(#swe-fx)" opacity=".89999"><path transform="matrix(1.3333,0,0,-1.3333,1376.3,1453.7)" d="m0 0h7.278c1.113 0 2.19-0.543 2.367-1.193 0.449-1.643 0.917-3.255 1.393-4.896 0.186-0.64-0.627-1.193-1.776-1.193h-7.486c-1.149 0-2.178 0.555-2.333 1.193-0.401 1.644-0.809 3.25-1.184 4.896-0.148 0.647 0.626 1.193 1.741 1.193" clip-path="url(#swe-fy)" fill="#fff" fill-rule="evenodd"/></g><g clip-path="url(#swe-fv)" opacity=".89999"><path transform="matrix(1.3333,0,0,-1.3333,1356.6,1453.7)" d="m0 0h7.312c1.115 0 2.151-0.546 2.299-1.193 0.375-1.646 0.739-3.26 1.114-4.896 0.148-0.645-0.696-1.193-1.846-1.193h-7.486c-1.149 0-2.145 0.549-2.263 1.193-0.3 1.638-0.64 3.247-0.941 4.896-0.117 0.644 0.697 1.193 1.811 1.193" clip-path="url(#swe-fw)" fill="#fff" fill-rule="evenodd"/></g><g clip-path="url(#swe-ft)" opacity=".89999"><path transform="matrix(1.3333,0,0,-1.3333,1337,1453.7)" d="m0 0h7.278c1.114 0 2.122-0.559 2.228-1.193 0.278-1.665 0.597-3.265 0.87-4.896 0.109-0.65-0.766-1.193-1.915-1.193h-7.486c-1.149 0-2.105 0.549-2.194 1.193-0.225 1.639-0.436 3.247-0.661 4.896-0.089 0.644 0.766 1.193 1.88 1.193" clip-path="url(#swe-fu)" fill="#fff" fill-rule="evenodd"/></g><g clip-path="url(#swe-fq)" opacity=".89999"><path transform="matrix(1.3333,0,0,-1.3333,1317.4,1453.7)" d="m0 0h7.278c1.114 0 2.056-0.551 2.123-1.193 0.176-1.654 0.393-3.262 0.593-4.896 0.079-0.649-0.801-1.193-1.95-1.193h-7.487c-1.149 0-2.109 0.544-2.159 1.193-0.124 1.634-0.258 3.252-0.383 4.896-0.049 0.65 0.871 1.193 1.985 1.193" clip-path="url(#swe-fr)" fill="#fff" fill-rule="evenodd"/></g><g clip-path="url(#swe-fo)" opacity=".89999"><path transform="matrix(1.3333,0,0,-1.3333,1297.8,1453.7)" d="m0 0h7.278c1.114 0 2.024-0.542 2.054-1.193 0.075-1.645 0.214-3.266 0.314-4.896 0.039-0.653-0.871-1.193-2.021-1.193h-7.486c-1.114 0-2.079 0.54-2.089 1.193-0.024 1.629-0.079 3.257-0.104 4.896-0.01 0.653 0.94 1.193 2.054 1.193" clip-path="url(#swe-fp)" fill="#fff" fill-rule="evenodd"/></g><g clip-path="url(#swe-fl)" opacity=".89999"><path transform="matrix(1.3333,0,0,-1.3333,1278.2,1453.7)" d="m0 0h7.312c1.115 0 1.985-0.536 1.985-1.193 0-1.64 0.035-3.268 0.035-4.896 0-0.654-0.94-1.193-2.055-1.193h-7.486c-1.184 0-2.084 0.538-2.054 1.193 0.074 1.627 0.124 3.259 0.174 4.896 0.02 0.656 0.975 1.193 2.089 1.193" clip-path="url(#swe-fn)" fill="#fff" fill-rule="evenodd"/></g><g clip-path="url(#swe-fj)" opacity=".89999"><path transform="matrix(1.3333,0,0,-1.3333,1258.6,1453.7)" d="m0 0h7.312c1.115 0 1.98-0.538 1.95-1.193-0.074-1.637-0.169-3.269-0.244-4.896-0.029-0.655-1.009-1.193-2.158-1.193h-7.487c-1.149 0-2.01 0.536-1.95 1.193 0.149 1.625 0.304 3.261 0.453 4.896 0.06 0.658 1.01 1.193 2.124 1.193" clip-path="url(#swe-fk)" fill="#fff" fill-rule="evenodd"/></g><g clip-path="url(#swe-fh)" opacity=".89999"><path transform="matrix(1.3333,0,0,-1.3333,1239,1453.7)" d="m0 0h7.278c1.113 0 1.984-0.539 1.915-1.193-0.175-1.638-0.349-3.268-0.523-4.896-0.069-0.653-1.079-1.193-2.228-1.193h-7.487c-1.149 0-1.98 0.537-1.88 1.193 0.248 1.626 0.483 3.26 0.731 4.896 0.1 0.657 1.08 1.193 2.194 1.193" clip-path="url(#swe-fi)" fill="#fff" fill-rule="evenodd"/></g><g clip-path="url(#swe-ff)" opacity=".89999"><path transform="matrix(1.3333,0,0,-1.3333,1219.4,1453.7)" d="m0 0h7.278c1.114 0 1.923-0.519 1.81-1.193-0.27-1.621-0.492-3.265-0.766-4.896-0.109-0.65-1.149-1.193-2.298-1.193h-7.486c-1.149 0-1.95 0.54-1.811 1.193 0.348 1.628 0.632 3.282 0.975 4.896 0.145 0.682 1.184 1.193 2.298 1.193" clip-path="url(#swe-fg)" fill="#fff" fill-rule="evenodd"/></g><g clip-path="url(#swe-fd)" opacity=".89999"><path transform="matrix(1.3333,0,0,-1.3333,1199.8,1453.7)" d="m0 0h7.277c1.114 0 1.88-0.539 1.741-1.193-0.348-1.638-0.705-3.26-1.079-4.896-0.148-0.645-1.184-1.193-2.333-1.193h-7.487c-1.149 0-1.946 0.536-1.775 1.193 0.421 1.625 0.838 3.289 1.253 4.896 0.178 0.689 1.288 1.193 2.403 1.193" clip-path="url(#swe-fe)" fill="#fff" fill-rule="evenodd"/></g><g clip-path="url(#swe-fa)" opacity=".89999"><path transform="matrix(1.3333,0,0,-1.3333,1180.1,1453.7)" d="m0 0h7.313c1.114 0 1.822-0.512 1.636-1.193-0.441-1.614-0.875-3.263-1.323-4.896-0.178-0.649-1.254-1.193-2.403-1.193h-7.486c-1.149 0-1.916 0.54-1.707 1.193 0.522 1.628 1.02 3.288 1.533 4.896 0.219 0.687 1.358 1.193 2.437 1.193" clip-path="url(#swe-fb)" fill="#fff" fill-rule="evenodd"/></g><g clip-path="url(#swe-ey)" opacity=".89999"><path transform="matrix(1.3333,0,0,-1.3333,1160.5,1453.7)" d="m0 0h7.278c1.114 0 1.828-0.515 1.602-1.193-0.54-1.616-1.052-3.258-1.602-4.896-0.216-0.644-1.324-1.193-2.473-1.193h-7.486c-1.149 0-1.884 0.545-1.637 1.193 0.623 1.634 1.2 3.286 1.811 4.896 0.26 0.684 1.358 1.193 2.507 1.193" clip-path="url(#swe-ez)" fill="#fff" fill-rule="evenodd"/></g><g clip-path="url(#swe-ev)" opacity=".89999"><path transform="matrix(1.3333,0,0,-1.3333,1140.3,1453.7)" d="m0 0h7.417c1.114 0 1.857-0.569 1.601-1.214-0.649-1.637-1.272-3.26-1.88-4.855-0.263-0.688-1.462-1.213-2.646-1.213h-7.591c-1.184 0-1.904 0.53-1.602 1.213 0.708 1.599 1.416 3.197 2.124 4.855 0.268 0.626 1.428 1.214 2.577 1.214" clip-path="url(#swe-ew)" fill="#fff" fill-rule="evenodd"/></g><g clip-path="url(#swe-et)" opacity=".89999"><path transform="matrix(1.3333,0,0,-1.3333,1135.6,1465)" d="m0 0h15.773c1.254 0 2.095-0.598 1.846-1.307-0.552-1.574-1.12-3.114-1.671-4.678-0.25-0.708-1.533-1.307-2.821-1.307h-16.191c-1.289 0-2.086 0.585-1.776 1.307 0.665 1.55 1.367 3.096 2.02 4.678 0.288 0.7 1.566 1.307 2.82 1.307" clip-path="url(#swe-eu)" fill="#fff" fill-rule="evenodd"/></g><g clip-path="url(#swe-eq)" opacity=".89999"><path transform="matrix(1.3333,0,0,-1.3333,1123.4,1487.8)" d="m0 0h17.704c0.821 0 1.398-0.567 1.253-1.296-0.309-1.553-0.614-3.103-0.928-4.679-0.139-0.696-0.951-1.307-1.793-1.307h-18.158c-0.842 0-1.383 0.597-1.187 1.307 0.43 1.561 0.839 3.12 1.252 4.679 0.192 0.723 1.037 1.296 1.857 1.296" clip-path="url(#swe-es)" fill="#fff" fill-rule="evenodd"/></g><g clip-path="url(#swe-eo)" opacity=".89999"><path transform="matrix(1.3333,0,0,-1.3333,1121.2,1499.2)" d="m0 0h12.187c1.394 0 2.295-0.586 2.02-1.307-0.595-1.561-1.147-3.126-1.741-4.678-0.276-0.719-1.636-1.297-3.064-1.297h-12.501c-1.393 0-2.294 0.575-1.984 1.297 0.665 1.549 1.305 3.143 1.984 4.678 0.331 0.748 1.706 1.307 3.099 1.307" clip-path="url(#swe-ep)" fill="#fff" fill-rule="evenodd"/></g><g clip-path="url(#swe-em)" opacity=".89999"><path transform="matrix(1.3333,0,0,-1.3333,1165.2,1465)" d="m0 0h8.044c1.219 0 2.12-0.615 1.915-1.286-0.493-1.615-1.008-3.156-1.462-4.72-0.207-0.708-1.428-1.286-2.717-1.286h-8.252c-1.253 0-2.075 0.607-1.846 1.286 0.538 1.594 1.117 3.14 1.672 4.72 0.246 0.702 1.428 1.286 2.646 1.286" clip-path="url(#swe-en)" fill="#fff" fill-rule="evenodd"/></g><g clip-path="url(#swe-ek)" opacity=".89999"><path transform="matrix(1.3333,0,0,-1.3333,1185.8,1465)" d="m0 0h8.078c1.219 0 2.123-0.579 1.951-1.286-0.385-1.575-0.82-3.135-1.184-4.72-0.159-0.689-1.359-1.286-2.612-1.286h-8.287c-1.254 0-2.122 0.578-1.915 1.286 0.455 1.564 0.91 3.138 1.392 4.72 0.214 0.699 1.358 1.286 2.577 1.286" clip-path="url(#swe-el)" fill="#fff" fill-rule="evenodd"/></g><g clip-path="url(#swe-eh)" opacity=".89999"><path transform="matrix(1.3333,0,0,-1.3333,1206.5,1465)" d="m0 0h8.044c1.253 0 2.159-0.581 2.019-1.286-0.312-1.577-0.618-3.16-0.905-4.72-0.131-0.712-1.288-1.286-2.542-1.286h-8.287c-1.254 0-2.134 0.589-1.985 1.286 0.338 1.575 0.758 3.117 1.149 4.72 0.166 0.681 1.254 1.286 2.507 1.286" clip-path="url(#swe-ej)" fill="#fff" fill-rule="evenodd"/></g><g clip-path="url(#swe-ef)" opacity=".89999"><path transform="matrix(1.3333,0,0,-1.3333,1227.1,1465)" d="m0 0h8.043c1.219 0 2.22-0.593 2.125-1.286-0.219-1.592-0.469-3.146-0.662-4.72-0.086-0.698-1.219-1.286-2.472-1.286h-8.253c-1.288 0-2.206 0.589-2.089 1.286 0.266 1.575 0.583 3.15 0.871 4.72 0.13 0.712 1.218 1.286 2.437 1.286" clip-path="url(#swe-eg)" fill="#fff" fill-rule="evenodd"/></g><g clip-path="url(#swe-ed)" opacity=".89999"><path transform="matrix(1.3333,0,0,-1.3333,1247.7,1465)" d="m0 0h8.078c1.219 0 2.213-0.586 2.159-1.286-0.12-1.582-0.287-3.152-0.383-4.72-0.043-0.703-1.149-1.286-2.403-1.286h-8.287c-1.253 0-2.199 0.583-2.124 1.286 0.168 1.568 0.399 3.136 0.592 4.72 0.085 0.698 1.149 1.286 2.368 1.286" clip-path="url(#swe-ee)" fill="#fff" fill-rule="evenodd"/></g><g clip-path="url(#swe-eb)" opacity=".89999"><path transform="matrix(1.3333,0,0,-1.3333,1268.4,1465)" d="m0 0h8.009c1.253 0 2.274-0.581 2.263-1.286-0.024-1.577-0.104-3.154-0.104-4.72 0-0.705-1.08-1.286-2.333-1.286h-8.253c-1.288 0-2.271 0.583-2.228 1.286 0.096 1.568 0.227 3.138 0.348 4.72 0.053 0.7 1.045 1.286 2.298 1.286" clip-path="url(#swe-ec)" fill="#fff" fill-rule="evenodd"/></g><g clip-path="url(#swe-dy)" opacity=".89999"><path transform="matrix(1.3333,0,0,-1.3333,1288.9,1465)" d="m0 0h8.078c1.219 0 2.312-0.578 2.333-1.286 0.048-1.575 0.067-3.154 0.14-4.72 0.032-0.705-0.975-1.286-2.264-1.286h-8.287c-1.253 0-2.263 0.581-2.263 1.286 0 1.566 0.069 3.142 0.069 4.72 0 0.709 0.975 1.286 2.194 1.286" clip-path="url(#swe-dz)" fill="#fff" fill-rule="evenodd"/></g><g clip-path="url(#swe-dw)" opacity=".89999"><path transform="matrix(1.3333,0,0,-1.3333,1309.6,1465)" d="m0 0h8.044c1.219 0 2.336-0.563 2.402-1.286 0.143-1.564 0.217-3.165 0.383-4.72 0.078-0.72-0.905-1.286-2.159-1.286h-8.252c-1.288 0-2.325 0.583-2.368 1.286-0.096 1.568-0.136 3.144-0.209 4.72-0.032 0.706 0.94 1.286 2.159 1.286" clip-path="url(#swe-dx)" fill="#fff" fill-rule="evenodd"/></g><g clip-path="url(#swe-du)" opacity=".89999"><path transform="matrix(1.3333,0,0,-1.3333,1330.2,1465)" d="m0 0h8.044c1.253 0 2.374-0.577 2.472-1.286 0.216-1.573 0.456-3.152 0.696-4.72 0.108-0.703-0.835-1.286-2.124-1.286h-8.287c-1.253 0-2.315 0.572-2.403 1.286-0.191 1.558-0.285 3.154-0.452 4.72-0.077 0.719 0.801 1.286 2.054 1.286" clip-path="url(#swe-dv)" fill="#fff" fill-rule="evenodd"/></g><g clip-path="url(#swe-dr)" opacity=".89999"><path transform="matrix(1.3333,0,0,-1.3333,1350.8,1465)" d="m0 0h8.078c1.219 0 2.388-0.563 2.542-1.286 0.333-1.56 0.582-3.163 0.94-4.72 0.165-0.715-0.766-1.286-2.019-1.286h-8.288c-1.253 0-2.389 0.589-2.507 1.286-0.265 1.575-0.493 3.16-0.731 4.72-0.11 0.726 0.766 1.286 1.985 1.286" clip-path="url(#swe-dt)" fill="#fff" fill-rule="evenodd"/></g><g clip-path="url(#swe-do)" opacity=".89999"><path transform="matrix(1.3333,0,0,-1.3333,1371.5,1465)" d="m0 0h8.043c1.219 0 2.423-0.558 2.612-1.286 0.403-1.556 0.755-3.166 1.184-4.72 0.198-0.718-0.662-1.286-1.95-1.286h-8.252c-1.254 0-2.413 0.571-2.577 1.286-0.358 1.557-0.651 3.153-1.01 4.72-0.164 0.715 0.731 1.286 1.95 1.286" clip-path="url(#swe-dp)" fill="#fff" fill-rule="evenodd"/></g><g clip-path="url(#swe-dm)" opacity=".89999"><path transform="matrix(1.3333,0,0,-1.3333,1392.1,1465)" d="m0 0h8.044c1.253 0 2.45-0.564 2.681-1.286 0.5-1.56 0.971-3.159 1.497-4.72 0.24-0.711-0.626-1.286-1.88-1.286h-8.287c-1.254 0-2.466 0.545-2.681 1.286-0.447 1.533-0.825 3.157-1.254 4.72-0.197 0.718 0.627 1.286 1.88 1.286" clip-path="url(#swe-dn)" fill="#fff" fill-rule="evenodd"/></g><g clip-path="url(#swe-dk)" opacity=".89999"><path transform="matrix(1.3333,0,0,-1.3333,1148.7,1499.2)" d="m0 0h8.81c1.358 0 2.308-0.594 2.089-1.276-0.512-1.591-0.997-3.169-1.497-4.73-0.232-0.722-1.567-1.276-2.96-1.276h-9.019c-1.392 0-2.272 0.585-2.019 1.276 0.582 1.591 1.134 3.176 1.706 4.73 0.264 0.718 1.532 1.276 2.89 1.276" clip-path="url(#swe-dl)" fill="#fff" fill-rule="evenodd"/></g><g clip-path="url(#swe-di)" opacity=".89999"><path transform="matrix(1.3333,0,0,-1.3333,1171.2,1499.2)" d="m0 0h8.844c1.323 0 2.269-0.587 2.089-1.276-0.412-1.582-0.808-3.145-1.218-4.73-0.181-0.698-1.463-1.276-2.856-1.276h-9.018c-1.393 0-2.337 0.577-2.124 1.276 0.483 1.583 0.978 3.15 1.463 4.73 0.211 0.691 1.497 1.276 2.82 1.276" clip-path="url(#swe-dj)" fill="#fff" fill-rule="evenodd"/></g><g clip-path="url(#swe-dg)" opacity=".89999"><path transform="matrix(1.3333,0,0,-1.3333,1193.8,1499.2)" d="m0 0h8.775c1.358 0 2.376-0.588 2.228-1.276-0.34-1.584-0.662-3.153-0.975-4.73-0.139-0.705-1.427-1.276-2.785-1.276h-9.019c-1.393 0-2.331 0.569-2.159 1.276 0.385 1.575 0.763 3.156 1.149 4.73 0.171 0.699 1.428 1.276 2.786 1.276" clip-path="url(#swe-dh)" fill="#fff" fill-rule="evenodd"/></g><g clip-path="url(#swe-de)" opacity=".89999"><path transform="matrix(1.3333,0,0,-1.3333,1216.4,1499.2)" d="m0 0h8.81c1.358 0 2.404-0.582 2.298-1.276-0.242-1.577-0.456-3.151-0.697-4.73-0.107-0.703-1.323-1.276-2.716-1.276h-9.053c-1.358 0-2.368 0.571-2.228 1.276 0.312 1.578 0.591 3.155 0.905 4.73 0.138 0.696 1.323 1.276 2.681 1.276" clip-path="url(#swe-df)" fill="#fff" fill-rule="evenodd"/></g><g clip-path="url(#swe-db)" opacity=".89999"><path transform="matrix(1.3333,0,0,-1.3333,1238.9,1499.2)" d="m0 0h8.81c1.358 0 2.43-0.589 2.367-1.276-0.145-1.588-0.308-3.155-0.453-4.73-0.064-0.707-1.253-1.276-2.646-1.276h-9.018c-1.358 0-2.396 0.567-2.298 1.276 0.216 1.573 0.409 3.158 0.627 4.73 0.096 0.7 1.288 1.276 2.611 1.276" clip-path="url(#swe-dc)" fill="#fff" fill-rule="evenodd"/></g><g clip-path="url(#swe-cz)" opacity=".89999"><path transform="matrix(1.3333,0,0,-1.3333,1261.5,1499.2)" d="m0 0h8.81c1.358 0 2.469-0.58 2.437-1.276-0.072-1.575-0.126-3.15-0.174-4.73-0.022-0.703-1.184-1.276-2.577-1.276h-9.018c-1.393 0-2.433 0.569-2.368 1.276 0.144 1.575 0.262 3.147 0.383 4.73 0.053 0.691 1.149 1.276 2.507 1.276" clip-path="url(#swe-da)" fill="#fff" fill-rule="evenodd"/></g><g clip-path="url(#swe-cw)" opacity=".89999"><path transform="matrix(1.3333,0,0,-1.3333,1284,1499.2)" d="m0 0h8.845c1.323 0 2.427-0.581 2.437-1.276 0.024-1.577 0.115-3.152 0.14-4.73 0.01-0.705-1.115-1.276-2.473-1.276h-9.053c-1.393 0-2.483 0.571-2.472 1.276 0.023 1.578 0.056 3.155 0.104 4.73 0.021 0.698 1.114 1.276 2.472 1.276" clip-path="url(#swe-cx)" fill="#fff" fill-rule="evenodd"/></g><g clip-path="url(#swe-cu)" opacity=".89999"><path transform="matrix(1.3333,0,0,-1.3333,1306.6,1499.2)" d="m0 0h8.809c1.359 0 2.524-0.575 2.577-1.276 0.121-1.572 0.262-3.147 0.383-4.73 0.053-0.7-1.045-1.276-2.437-1.276h-9.019c-1.358 0-2.52 0.569-2.542 1.276-0.048 1.575-0.091 3.155-0.139 4.73-0.021 0.698 1.045 1.276 2.368 1.276" clip-path="url(#swe-cv)" fill="#fff" fill-rule="evenodd"/></g><g clip-path="url(#swe-cs)" opacity=".89999"><path transform="matrix(1.3333,0,0,-1.3333,1329.2,1499.2)" d="m0 0h8.809c1.359 0 2.562-0.588 2.647-1.276 0.194-1.584 0.446-3.157 0.661-4.73 0.098-0.709-0.974-1.276-2.367-1.276h-9.054c-1.357 0-2.547 0.569-2.611 1.276-0.144 1.575-0.273 3.155-0.418 4.73-0.064 0.697 0.975 1.276 2.333 1.276" clip-path="url(#swe-ct)" fill="#fff" fill-rule="evenodd"/></g><g clip-path="url(#swe-cq)" opacity=".89999"><path transform="matrix(1.3333,0,0,-1.3333,1351.7,1499.2)" d="m0 0h8.81c1.323 0 2.586-0.573 2.716-1.276 0.288-1.569 0.592-3.152 0.905-4.73 0.14-0.705-0.905-1.276-2.298-1.276h-8.984c-1.393 0-2.574 0.573-2.681 1.276-0.241 1.579-0.48 3.158-0.696 4.73-0.097 0.699 0.87 1.276 2.228 1.276" clip-path="url(#swe-cr)" fill="#fff" fill-rule="evenodd"/></g><g clip-path="url(#swe-cm)" opacity=".89999"><path transform="matrix(1.3333,0,0,-1.3333,1374.3,1499.2)" d="m0 0h15.913c1.393 0 2.699-0.609 2.89-1.307 0.436-1.585 0.862-3.132 1.288-4.678 0.201-0.726-0.8-1.297-2.228-1.297h-16.296c-1.428 0-2.698 0.566-2.855 1.297-0.331 1.542-0.63 3.11-0.94 4.678-0.142 0.714 0.87 1.307 2.228 1.307" clip-path="url(#swe-co)" fill="#fff" fill-rule="evenodd"/></g><g clip-path="url(#swe-ck)" opacity=".89999"><path transform="matrix(1.3333,0,0,-1.3333,1407.5,1499.2)" d="m0 0h8.426c1.254 0 2.522-0.53 2.751-1.214 0.537-1.599 1.056-3.22 1.602-4.854 0.22-0.659-0.731-1.214-2.02-1.214h-8.6c-1.289 0-2.527 0.557-2.716 1.214-0.472 1.636-0.928 3.251-1.393 4.854-0.197 0.679 0.696 1.214 1.95 1.214" clip-path="url(#swe-cl)" fill="#fff" fill-rule="evenodd"/></g><g clip-path="url(#swe-ci)" opacity=".89999"><path transform="matrix(1.3333,0,0,-1.3333,1441.1,1487)" d="m0 0h10.792c1.661 0 3.333-0.523 3.736-1.214 0.935-1.601 1.86-3.216 2.814-4.843 0.383-0.655-0.692-1.225-2.352-1.225h-11.07c-1.706 0-3.347 0.573-3.689 1.225-0.857 1.631-1.706 3.227-2.583 4.843-0.367 0.677 0.692 1.214 2.352 1.214" clip-path="url(#swe-cj)" fill="#fff" fill-rule="evenodd"/></g><g clip-path="url(#swe-cg)" opacity=".89999"><path transform="matrix(1.3333,0,0,-1.3333,1452.5,1498.8)" d="m0 0h8.357c1.288 0 2.588-0.53 2.89-1.214 0.707-1.599 1.423-3.182 2.159-4.854 0.275-0.624-0.557-1.214-1.88-1.214h-8.601c-1.288 0-2.598 0.561-2.855 1.214-0.648 1.64-1.279 3.251-1.915 4.854-0.269 0.679 0.557 1.214 1.845 1.214" clip-path="url(#swe-ch)" fill="#fff" fill-rule="evenodd"/></g><path transform="matrix(1.3333,0,0,-1.3333,980.24,1155.7)" d="m0 0c-1.662-1.166-3.416-1.814-5.262-1.946-1.846-0.131-3.645 0.327-5.398 1.377l3.784 6.101c1.217-0.642 2.396-0.802 3.535-0.475 1.141 0.324 2.114 1.139 2.922 2.439 0.824 1.328 1.153 2.57 0.986 3.725-0.165 1.154-0.763 2.051-1.795 2.691-0.839 0.521-1.691 0.692-2.552 0.513-0.863-0.178-1.689-0.557-2.48-1.137s-1.797-1.43-3.017-2.55c-1.686-1.507-3.152-2.673-4.395-3.497s-2.657-1.318-4.241-1.48c-1.584-0.164-3.271 0.311-5.06 1.421-1.681 1.043-2.884 2.37-3.61 3.985-0.726 1.613-0.95 3.386-0.673 5.316 0.278 1.931 1.023 3.872 2.233 5.825 1.816 2.927 4.004 4.866 6.563 5.813 2.558 0.948 5.171 0.725 7.837-0.666l-3.885-6.264c-1.01 0.552-2.073 0.638-3.189 0.262-1.116-0.378-2.071-1.205-2.861-2.478-0.689-1.113-0.955-2.177-0.797-3.194 0.156-1.018 0.777-1.862 1.862-2.535 0.759-0.471 1.545-0.611 2.357-0.421 0.814 0.19 1.607 0.562 2.382 1.113 0.774 0.553 1.784 1.38 3.032 2.485 1.686 1.506 3.162 2.675 4.428 3.504s2.701 1.328 4.307 1.497c1.605 0.167 3.29-0.295 5.052-1.388 1.518-0.942 2.684-2.21 3.498-3.804 0.813-1.593 1.135-3.389 0.967-5.386-0.17-1.998-0.901-4.041-2.196-6.128-1.229-1.98-2.672-3.553-4.334-4.718" clip-path="url(#swe-ce)"/><path transform="matrix(1.3333,0,0,-1.3333,1007.5,1102.9)" d="m0 0c0.247 1.764-0.019 3.511-0.801 5.24-0.781 1.729-2.043 3.292-3.786 4.689-1.743 1.395-3.538 2.281-5.384 2.655-1.846 0.376-3.597 0.245-5.251-0.391-1.654-0.637-3.111-1.74-4.367-3.31-1.257-1.568-2.02-3.237-2.29-5.002-0.271-1.767-0.021-3.509 0.748-5.229 0.769-1.719 2.025-3.277 3.768-4.673s3.544-2.288 5.402-2.671c1.859-0.386 3.626-0.259 5.304 0.381 1.677 0.639 3.144 1.743 4.4 3.311 1.257 1.57 2.009 3.236 2.257 5m-4.692-14.085c-2.78-1.126-5.664-1.474-8.652-1.043-2.987 0.43-5.762 1.672-8.328 3.728-2.54 2.034-4.346 4.462-5.418 7.283s-1.363 5.71-0.873 8.671c0.49 2.958 1.713 5.658 3.668 8.1 1.974 2.465 4.347 4.253 7.118 5.366 2.771 1.111 5.645 1.445 8.623 1.003 2.976-0.442 5.735-1.681 8.275-3.716 2.566-2.055 4.388-4.486 5.471-7.294 1.082-2.809 1.378-5.693 0.888-8.651-0.49-2.961-1.713-5.661-3.667-8.101-1.956-2.441-4.323-4.224-7.105-5.346" clip-path="url(#swe-cd)"/><path transform="matrix(1.3333,0,0,-1.3333,1016.8,1041.8)" d="m0 0 3.81-3.839-9.884-9.812 6.035-6.079 7.574 7.518 3.743-3.77-7.575-7.519 9.946-10.02-4.754-4.72-23.535 23.709z" clip-path="url(#swe-cc)"/><path transform="matrix(1.3333,0,0,-1.3333,1047.4,1016.3)" d="m0 0 3.425-4.184-6.887-5.639 17.735-21.664-5.185-4.245-17.735 21.664-6.888-5.639-3.426 4.185z" clip-path="url(#swe-cb)"/><path transform="matrix(1.3333,0,0,-1.3333,1106.8,978.07)" d="m0 0 9.466-33.369-6.737-4.119-17.758 17.021 6.815-23.713-6.671-4.135-25.129 23.846 6.125 3.745 18.554-19.059-7.734 25.676 6.37 3.895 18.929-18.662-8.395 25.103z" clip-path="url(#swe-ca)"/><path transform="matrix(1.3333,0,0,-1.3333,1151.1,990.83)" d="m0 0-9.909 10.977 1.01-14.752zm3.768-4.223-12.247-5.198 0.459-6.719-6.477-2.748-2.009 35.488 7.182 3.047 24.125-26.103-6.52-2.768z" clip-path="url(#swe-by)"/><path transform="matrix(1.3333,0,0,-1.3333,1177.2,972.52)" d="m0 0 5.374 1.573c1.746 0.51 2.924 1.312 3.535 2.405 0.611 1.092 0.698 2.39 0.258 3.89-0.431 1.471-1.192 2.485-2.287 3.047-1.095 0.559-2.515 0.585-4.261 0.075l-5.374-1.573zm15.171-14.36-10.729 10.424-3.032-0.886 3.656-12.495-6.431-1.881-9.379 32.062 12.034 3.52c2.481 0.727 4.721 0.908 6.722 0.546s3.655-1.159 4.963-2.388c1.306-1.23 2.229-2.763 2.766-4.601 0.618-2.113 0.563-4.198-0.164-6.256-0.728-2.059-2.207-3.763-4.438-5.113l11.473-10.755z" clip-path="url(#swe-bx)"/><path transform="matrix(1.3333,0,0,-1.3333,1215.8,949.16)" d="m0 0 1.525-8.235 11.059 2.048 0.968-5.223-11.059-2.049 1.612-8.705 12.471 2.31 0.994-5.365-19.058-3.53-6.095 32.894 19.06 3.53 0.993-5.365z" clip-path="url(#swe-bv)"/><path transform="matrix(1.3333,0,0,-1.3333,1284.2,941.93)" d="m0 0 0.077-8.375 11.246 0.102 0.048-5.312-11.246-0.102 0.08-8.855 12.683 0.116 0.049-5.455-19.383-0.176-0.304 33.452 19.383 0.176 0.049-5.456z" clip-path="url(#swe-bu)"/><path transform="matrix(1.3333,0,0,-1.3333,1346.3,982.9)" d="m0 0-6.667 0.667-12.814 24.321-2.282-22.81-6.667 0.666 3.33 33.287 6.667-0.666 12.809-24.369 2.288 22.858 6.666-0.667z" clip-path="url(#swe-bt)"/><path transform="matrix(1.3333,0,0,-1.3333,1390.9,960.74)" d="m0 0c-0.428 1.541-1.212 2.82-2.351 3.838-1.138 1.018-2.579 1.73-4.319 2.134-1.928 0.449-3.737 0.409-5.432-0.113-1.693-0.524-3.147-1.496-4.362-2.917s-2.067-3.188-2.558-5.301c-0.506-2.176-0.52-4.171-0.04-5.986 0.479-1.815 1.378-3.334 2.699-4.557 1.32-1.224 2.991-2.071 5.011-2.541 2.486-0.578 4.676-0.391 6.568 0.562 1.891 0.953 3.36 2.552 4.407 4.798l-11.188 2.601 1.159 4.987 17.621-4.094-1.321-5.688c-0.963-2.167-2.383-4.049-4.26-5.643-1.878-1.595-4.078-2.713-6.603-3.355-2.524-0.642-5.183-0.638-7.981 0.012-3.14 0.73-5.811 2.096-8.014 4.098-2.205 2.002-3.737 4.432-4.597 7.284-0.861 2.854-0.918 5.88-0.174 9.082 0.744 3.199 2.132 5.899 4.166 8.096 2.034 2.198 4.48 3.709 7.342 4.535 2.862 0.825 5.847 0.876 8.955 0.155 3.667-0.854 6.645-2.487 8.933-4.903 2.288-2.415 3.57-5.357 3.845-8.827z" clip-path="url(#swe-bs)"/><path transform="matrix(1.3333,0,0,-1.3333,1422.6,956.41)" d="m0 0-10.432-31.735-6.364 2.091 10.431 31.736z" clip-path="url(#swe-br)"/><path transform="matrix(1.3333,0,0,-1.3333,1451.3,1015.9)" d="m0 0-6.16 2.635-4.936 27.043-9.014-21.077-6.161 2.634 13.155 30.759 6.16-2.635 4.917-27.088 9.032 21.123 6.161-2.634z" clip-path="url(#swe-bq)"/><path transform="matrix(1.3333,0,0,-1.3333,1484.1,991.45)" d="m0 0-4.108-7.298 9.8-5.517-2.605-4.63-9.801 5.517-4.343-7.715 11.052-6.222-2.676-4.755-16.891 9.509 16.409 29.153 16.892-9.508-2.677-4.755z" clip-path="url(#swe-bp)"/><path transform="matrix(1.3333,0,0,-1.3333,1515.1,1010.4)" d="m0 0-4.758-6.893 9.256-6.389-3.019-4.371-9.254 6.388-5.03-7.287 10.437-7.204-3.1-4.49-15.951 11.011 19.005 27.532 15.951-11.012-3.099-4.491z" clip-path="url(#swe-bn)"/><path transform="matrix(1.3333,0,0,-1.3333,1535.9,1042.4)" d="m0 0 4.263-3.629c1.384-1.18 2.701-1.725 3.95-1.637 1.249 0.089 2.381 0.728 3.394 1.918 0.994 1.166 1.423 2.361 1.292 3.584-0.133 1.223-0.89 2.425-2.274 3.603l-4.264 3.631zm-3.683-20.563 2.829 14.689-2.405 2.049-8.44-9.911-5.101 4.345 21.659 25.433 9.547-8.131c1.968-1.676 3.349-3.449 4.144-5.321 0.795-1.871 1.036-3.692 0.725-5.459-0.31-1.768-1.087-3.381-2.328-4.837-1.427-1.677-3.201-2.774-5.321-3.295-2.119-0.521-4.356-0.219-6.709 0.905l-2.697-15.494z" clip-path="url(#swe-bl)"/><path transform="matrix(1.3333,0,0,-1.3333,1581.2,1056.2)" d="m0 0-23.611-23.632-4.74 4.736 23.611 23.633z" clip-path="url(#swe-bk)"/><path transform="matrix(1.3333,0,0,-1.3333,1580,1122.3)" d="m0 0-4.308 5.131 7.806 26.359-17.56-14.738-4.307 5.133 25.624 21.507 4.308-5.132-7.842-26.39 17.595 14.769 4.308-5.132z" clip-path="url(#swe-bj)"/><path transform="matrix(1.3333,0,0,-1.3333,1627.4,1137.6)" d="m0 0c0.77 1.401 1.104 2.863 0.999 4.388-0.103 1.524-0.638 3.04-1.601 4.545-1.065 1.666-2.388 2.903-3.965 3.712-1.579 0.808-3.298 1.128-5.16 0.959-1.862-0.167-3.707-0.837-5.534-2.006-1.882-1.204-3.285-2.621-4.21-4.255-0.925-1.633-1.341-3.349-1.252-5.148 0.09-1.798 0.695-3.57 1.813-5.317 1.375-2.15 3.072-3.546 5.093-4.186 2.018-0.64 4.186-0.521 6.505 0.356l-6.191 9.675 4.314 2.76 9.749-15.238-4.918-3.147c-2.204-0.879-4.533-1.234-6.991-1.064-2.457 0.171-4.812 0.907-7.066 2.211-2.255 1.304-4.156 3.165-5.703 5.583-1.737 2.715-2.695 5.559-2.874 8.532s0.421 5.78 1.799 8.422c1.377 2.643 3.449 4.849 6.217 6.621s5.648 2.732 8.638 2.885c2.989 0.151 5.796-0.477 8.421-1.885s4.797-3.456 6.516-6.144c2.029-3.171 3.018-6.419 2.97-9.747-0.049-3.326-1.188-6.328-3.416-9.004z" clip-path="url(#swe-bi)"/><path transform="matrix(1.3333,0,0,-1.3333,921.66,1409.8)" d="m0 0c1.266 0.977 2.156 2.185 2.67 3.624 0.514 1.438 0.631 3.04 0.35 4.804-0.311 1.955-1.028 3.617-2.151 4.99-1.123 1.371-2.572 2.351-4.345 2.942-1.774 0.59-3.733 0.714-5.875 0.372-2.206-0.35-4.06-1.089-5.56-2.216-1.501-1.127-2.569-2.534-3.205-4.218-0.637-1.685-0.792-3.55-0.466-5.599 0.401-2.521 1.399-4.478 2.995-5.872 1.594-1.393 3.629-2.152 6.104-2.274l-1.806 11.343 5.058 0.805 2.844-17.866-5.766-0.919c-2.371 0.076-4.648 0.684-6.832 1.821-2.185 1.138-4.049 2.755-5.595 4.853-1.545 2.096-2.544 4.562-2.995 7.396-0.507 3.184-0.248 6.172 0.778 8.969 1.024 2.797 2.696 5.131 5.015 7.002 2.32 1.871 5.102 3.065 8.347 3.582s6.268 0.247 9.07-0.809c2.801-1.057 5.123-2.755 6.966-5.094 1.842-2.341 3.015-5.085 3.517-8.238 0.59-3.716 0.199-7.091-1.176-10.121-1.376-3.029-3.619-5.325-6.731-6.886z" clip-path="url(#swe-bh)"/><path transform="matrix(1.3333,0,0,-1.3333,920.8,1437.6)" d="m0 0 1.532-5.387c0.498-1.749 1.291-2.933 2.379-3.552 1.089-0.62 2.384-0.715 3.889-0.288 1.473 0.42 2.493 1.176 3.062 2.265 0.569 1.091 0.605 2.511 0.108 4.26l-1.533 5.386zm-14.473-15.064 10.504 10.65-0.864 3.039-12.521-3.562-1.833 6.445 32.13 9.139 3.432-12.06c0.706-2.485 0.872-4.728 0.495-6.726-0.378-1.998-1.185-3.646-2.425-4.943-1.24-1.299-2.78-2.211-4.622-2.734-2.117-0.602-4.202-0.532-6.255 0.212-2.052 0.743-3.746 2.236-5.079 4.476l-10.841-11.393z" clip-path="url(#swe-bg)"/><path transform="matrix(1.3333,0,0,-1.3333,945.87,1471.9)" d="m0 0-7.79-3.074 4.127-10.462-4.94-1.949-4.129 10.462-8.236-3.25 4.655-11.797-5.075-2.004-7.114 18.03 31.118 12.28 7.115-18.03-5.076-2.003z" clip-path="url(#swe-bf)"/><path transform="matrix(1.3333,0,0,-1.3333,959.15,1502.4)" d="m0 0-7.507-3.716 4.99-10.08-4.761-2.355-4.989 10.078-7.935-3.928 5.626-11.365-4.89-2.421-8.599 17.372 29.982 14.84 8.599-17.371-4.89-2.42z" clip-path="url(#swe-be)"/><path transform="matrix(1.3333,0,0,-1.3333,958.97,1575.9)" d="m0 0-3.611 5.645 11.136 25.132-19.311-12.352-3.61 5.643 28.181 18.028 3.611-5.644-11.177-25.159 19.351 12.378 3.611-5.645z" clip-path="url(#swe-bd)"/><path transform="matrix(1.3333,0,0,-1.3333,1015.3,1575.4)" d="m0 0-15.41-13.785c-1.689-1.511-2.584-3.104-2.689-4.781-0.105-1.678 0.555-3.313 1.981-4.907 1.446-1.617 3.009-2.466 4.688-2.548s3.362 0.631 5.051 2.142l15.409 13.785 4.498-5.029-15.372-13.753c-2.117-1.894-4.316-3.036-6.597-3.429-2.282-0.393-4.477-0.153-6.586 0.721-2.11 0.875-4.005 2.252-5.685 4.13-1.66 1.855-2.795 3.866-3.41 6.036-0.613 2.17-0.583 4.349 0.093 6.536 0.675 2.189 2.07 4.23 4.187 6.122l15.374 13.754z" clip-path="url(#swe-bc)"/><path transform="matrix(1.3333,0,0,-1.3333,1037.3,1658.9)" d="m0 0-5.038 4.415 3.699 27.24-15.109-17.24-5.039 4.416 22.049 25.159 5.039-4.416-3.731-27.275 15.141 17.276 5.039-4.417z" clip-path="url(#swe-ba)"/><path transform="matrix(1.3333,0,0,-1.3333,1080,1634.8)" d="m0 0-19.793-26.912-5.397 3.97 19.792 26.912z" clip-path="url(#swe-az)"/><path transform="matrix(1.3333,0,0,-1.3333,1119.9,1660.4)" d="m0 0-27.924-22.051-6.933 4.258 7.044 34.877 6.117-3.758-6.072-27.441 21.691 17.847z" clip-path="url(#swe-ay)"/><path transform="matrix(1.3333,0,0,-1.3333,1128.3,1672.1)" d="m0 0-3.617-7.555 10.143-4.857-2.294-4.791-10.144 4.858-3.824-7.986 11.438-5.477-2.356-4.922-17.482 8.374 14.449 30.17 17.482-8.371-2.356-4.922z" clip-path="url(#swe-ax)"/><path transform="matrix(1.3333,0,0,-1.3333,1154,1697.8)" d="m0 0 5.262-1.912c1.71-0.621 3.134-0.673 4.274-0.152 1.139 0.518 1.976 1.512 2.51 2.981 0.523 1.441 0.509 2.71-0.042 3.81-0.55 1.099-1.681 1.96-3.389 2.582l-5.263 1.912zm3.732-20.555-2.481 14.754-2.968 1.078-4.448-12.233-6.296 2.288 11.412 31.397 11.785-4.285c2.428-0.882 4.343-2.062 5.741-3.538 1.398-1.475 2.261-3.096 2.587-4.861 0.326-1.767 0.162-3.547-0.492-5.346-0.752-2.07-2.031-3.717-3.835-4.946-1.805-1.23-4.006-1.728-6.603-1.496l2.884-15.46z" clip-path="url(#swe-aw)"/><path transform="matrix(1.3333,0,0,-1.3333,1185.8,1732.3)" d="m0 0c-1.618 1.225-2.772 2.696-3.462 4.414s-0.804 3.57-0.34 5.56l6.965-1.737c-0.239-1.354-0.029-2.524 0.63-3.51 0.658-0.987 1.731-1.665 3.216-2.036 1.517-0.378 2.8-0.311 3.848 0.201 1.048 0.51 1.719 1.354 2.012 2.532 0.239 0.958 0.142 1.822-0.292 2.588-0.433 0.765-1.047 1.436-1.841 2.012s-1.91 1.274-3.35 2.094c-1.951 1.143-3.509 2.181-4.674 3.112-1.166 0.932-2.068 2.127-2.707 3.585-0.64 1.459-0.704 3.209-0.194 5.252 0.478 1.92 1.374 3.472 2.689 4.658 1.315 1.183 2.933 1.939 4.857 2.266 1.922 0.326 3.998 0.212 6.228-0.345 3.343-0.833 5.857-2.323 7.542-4.469 1.684-2.146 2.272-4.702 1.763-7.666l-7.152 1.784c0.216 1.129-0.026 2.167-0.727 3.115-0.701 0.947-1.779 1.603-3.234 1.966-1.27 0.316-2.365 0.244-3.285-0.217-0.921-0.462-1.535-1.311-1.843-2.549-0.217-0.867-0.11-1.658 0.32-2.374 0.43-0.715 1.025-1.357 1.789-1.925 0.762-0.569 1.859-1.278 3.292-2.127 1.95-1.146 3.515-2.193 4.691-3.144s2.091-2.166 2.742-3.644c0.651-1.476 0.726-3.222 0.224-5.234-0.433-1.733-1.283-3.232-2.551-4.494s-2.88-2.117-4.833-2.567c-1.954-0.451-4.122-0.379-6.506 0.215-2.26 0.565-4.199 1.458-5.817 2.684" clip-path="url(#swe-av)"/><path transform="matrix(1.3333,0,0,-1.3333,1235,1698.4)" d="m0 0-5.658-32.923-6.603 1.134 5.658 32.924z" clip-path="url(#swe-at)"/><path transform="matrix(1.3333,0,0,-1.3333,1272.6,1702.8)" d="m0 0-0.532-5.383-8.859 0.876-2.754-27.861-6.669 0.66 2.756 27.861-8.859 0.876 0.533 5.382z" clip-path="url(#swe-as)"/><path transform="matrix(1.3333,0,0,-1.3333,1312.9,1702.9)" d="m0 0-11.219-21.815 0.039-11.629-6.7-0.023-0.039 11.629-11.419 21.737 7.563 0.026 7.231-15.242 7.078 15.292z" clip-path="url(#swe-ar)"/><path transform="matrix(1.3333,0,0,-1.3333,1363.6,1731.7)" d="m0 0c1.363 1.148 2.331 2.624 2.905 4.435 0.574 1.808 0.679 3.815 0.315 6.018-0.365 2.203-1.108 4.061-2.232 5.574-1.123 1.511-2.512 2.583-4.17 3.215-1.656 0.631-3.476 0.783-5.459 0.455s-3.666-1.058-5.047-2.192-2.359-2.597-2.936-4.391c-0.576-1.793-0.683-3.792-0.318-5.994 0.364-2.204 1.109-4.07 2.235-5.597 1.126-1.529 2.525-2.616 4.201-3.26 1.675-0.645 3.504-0.803 5.487-0.475s3.657 1.066 5.019 2.212m-12.901-7.347c-2.821 1.02-5.199 2.689-7.134 5.005-1.935 2.317-3.171 5.095-3.707 8.337-0.531 3.21-0.252 6.224 0.834 9.039 1.087 2.816 2.801 5.161 5.142 7.035 2.342 1.874 5.056 3.068 8.141 3.577 3.117 0.516 6.076 0.261 8.883-0.762 2.804-1.025 5.166-2.696 7.086-5.013 1.919-2.318 3.144-5.084 3.676-8.294 0.535-3.242 0.267-6.27-0.803-9.082-1.071-2.813-2.779-5.157-5.12-7.032s-5.055-3.067-8.139-3.577c-3.086-0.51-6.039-0.255-8.859 0.767" clip-path="url(#swe-aq)"/><path transform="matrix(1.3333,0,0,-1.3333,1404.4,1685.3)" d="m0 0 1.47-5.204-13.404-3.784 2.329-8.244 10.27 2.899 1.444-5.112-10.272-2.9 3.837-13.588-6.447-1.82-9.079 32.15z" clip-path="url(#swe-ao)"/><path transform="matrix(1.3333,0,0,-1.3333,1457.9,1702.4)" d="m0 0c0.524 1.067 0.505 2.242-0.06 3.527-0.577 1.316-1.466 2.154-2.669 2.514-1.205 0.36-2.551 0.213-4.042-0.44l-6.046-2.655 3.615-8.238 6.179 2.712c1.49 0.653 2.498 1.515 3.023 2.58m-14.895 7.679 5.61 2.463c1.46 0.64 2.44 1.463 2.941 2.466 0.5 1.003 0.482 2.119-0.056 3.346-0.539 1.227-1.351 2.003-2.435 2.33-1.083 0.324-2.355 0.168-3.816-0.472l-5.61-2.463zm17.605 1.925c1.726-0.915 2.986-2.279 3.781-4.09 0.718-1.636 0.947-3.251 0.69-4.845-0.26-1.595-0.994-3.076-2.206-4.444s-2.855-2.507-4.929-3.416l-13.192-5.791-13.423 30.591 12.621 5.538c2.074 0.911 4.011 1.36 5.81 1.349 1.8-0.013 3.35-0.447 4.651-1.306 1.299-0.857 2.282-2.047 2.949-3.565 0.782-1.782 0.961-3.482 0.537-5.095-0.423-1.616-1.314-3.017-2.675-4.205 1.865 0.434 3.66 0.195 5.386-0.721" clip-path="url(#swe-am)"/><path transform="matrix(1.3333,0,0,-1.3333,1494.3,1675.4)" d="m0 0-11.195 9.662 2.834-14.515zm4.264-3.724-11.508-6.677 1.291-6.611-6.086-3.53-6.4 34.964 6.747 3.915 27.181-22.905-6.127-3.555z" clip-path="url(#swe-al)"/><path transform="matrix(1.3333,0,0,-1.3333,1553.1,1653.2)" d="m0 0-5.346-4.04-25.926 9.137 13.825-18.287-5.345-4.041-20.175 26.687 5.345 4.041 25.956-9.177-13.854 18.326 5.345 4.039z" clip-path="url(#swe-ak)"/><path transform="matrix(1.3333,0,0,-1.3333,1562.9,1601.2)" d="m0 0c-1.529 0.467-3.029 0.495-4.5 0.082-1.471-0.412-2.846-1.244-4.123-2.493-1.414-1.384-2.355-2.931-2.825-4.64-0.469-1.71-0.432-3.46 0.112-5.247 0.545-1.788 1.575-3.458 3.093-5.009 1.562-1.595 3.236-2.681 5.024-3.253 1.788-0.573 3.553-0.63 5.294-0.175 1.742 0.454 3.356 1.406 4.838 2.857 1.823 1.784 2.844 3.732 3.059 5.839 0.214 2.107-0.344 4.205-1.675 6.296l-8.21-8.033-3.581 3.661 12.931 12.651 4.083-4.173c1.309-1.978 2.131-4.187 2.466-6.628 0.334-2.44 0.093-4.895-0.723-7.369-0.818-2.473-2.251-4.714-4.304-6.722-2.304-2.254-4.892-3.771-7.767-4.552-2.873-0.782-5.744-0.766-8.612 0.043-2.868 0.81-5.45 2.389-7.749 4.738-2.298 2.35-3.826 4.972-4.585 7.867-0.758 2.897-0.716 5.773 0.128 8.63 0.844 2.855 2.405 5.399 4.686 7.632 2.691 2.633 5.67 4.264 8.937 4.894 3.268 0.629 6.438 0.127 9.511-1.507z" clip-path="url(#swe-aj)"/><path transform="matrix(1.3333,0,0,-1.3333,1599.1,1596.8)" d="m0 0 7.027 8.472 4.089-3.392-11.304-13.629-25.712 21.328 4.278 5.157z" clip-path="url(#swe-ai)"/><path transform="matrix(1.3333,0,0,-1.3333,1620.1,1554)" d="m0 0-14.289 3.806 8.884-11.821zm5.461-1.488-7.439-11.032 4.046-5.384-3.933-5.832-21.019 28.664 4.362 6.466 34.452-8.744-3.96-5.873z" clip-path="url(#swe-ah)"/><path transform="matrix(1.3333,0,0,-1.3333,1647.7,1513.9)" d="m0 0c-0.832 2.576-2.796 4.656-5.892 6.241-3.095 1.583-5.953 1.971-8.572 1.16-2.619-0.808-4.728-2.776-6.327-5.901l-2.158-4.218 19.64-10.051 2.159 4.218c1.598 3.125 1.982 5.975 1.15 8.551m-19.658 11.593c2.435 1.745 5.112 2.687 8.031 2.825 2.92 0.137 5.871-0.559 8.854-2.085 2.981-1.525 5.256-3.507 6.825-5.94 1.568-2.433 2.356-5.148 2.364-8.145 7e-3 -2.996-0.788-6.057-2.388-9.181l-5.319-10.395-29.738 15.219 5.32 10.394c1.599 3.125 3.616 5.561 6.051 7.308" clip-path="url(#swe-ag)"/><path transform="matrix(1.3333,0,0,-1.3333,1635.7,1476.8)" d="m0 0 7.812-3.018 4.052 10.492 4.956-1.914-4.052-10.491 8.259-3.191 4.569 11.832 5.09-1.967-6.984-18.081-31.206 12.054 6.983 18.08 5.09-1.965z" clip-path="url(#swe-af)"/><path transform="matrix(1.3333,0,0,-1.3333,1680.9,1457.3)" d="m0 0c-1.271-1.581-2.776-2.692-4.514-3.332-1.735-0.641-3.591-0.7-5.566-0.179l1.937 6.912c1.348-0.279 2.524-0.103 3.529 0.528 1.005 0.629 1.714 1.681 2.128 3.155 0.422 1.505 0.392 2.79-0.089 3.852-0.481 1.063-1.304 1.757-2.472 2.085-0.952 0.268-1.817 0.195-2.596-0.215-0.778-0.412-1.465-1.007-2.065-1.782-0.598-0.778-1.328-1.874-2.189-3.289-1.201-1.918-2.284-3.444-3.249-4.582-0.964-1.137-2.185-2.005-3.662-2.601-1.476-0.597-3.227-0.612-5.255-0.041-1.905 0.533-3.43 1.474-4.577 2.823-1.145 1.348-1.853 2.988-2.125 4.921-0.269 1.931-0.094 4.002 0.526 6.214 0.93 3.318 2.493 5.788 4.686 7.409 2.196 1.622 4.767 2.135 7.714 1.54l-1.99-7.097c-1.123 0.249-2.168 0.037-3.135-0.636-0.968-0.674-1.654-1.732-2.059-3.175-0.353-1.261-0.313-2.358 0.122-3.29 0.433-0.934 1.265-1.573 2.494-1.918 0.86-0.241 1.654-0.158 2.382 0.253 0.728 0.407 1.386 0.984 1.976 1.731 0.591 0.746 1.331 1.822 2.224 3.229 1.2 1.918 2.292 3.449 3.276 4.598 0.986 1.148 2.227 2.027 3.722 2.634 1.496 0.608 3.242 0.633 5.239 0.072 1.721-0.482 3.192-1.376 4.418-2.679 1.225-1.306 2.033-2.94 2.427-4.907 0.392-1.965 0.258-4.131-0.405-6.496-0.629-2.243-1.58-4.155-2.852-5.737" clip-path="url(#swe-ae)"/><path transform="matrix(1.3333,0,0,-1.3333,1653,1380.1)" d="m0 0 32.966-5.409-1.085-6.612-14.027 2.302-2.317-14.122 14.026-2.3-1.084-6.612-32.964 5.408 1.084 6.613 13.554-2.225 2.317 14.122-13.554 2.223z" clip-path="url(#swe-ac)"/><path transform="matrix(1.3333,0,0,-1.3333,906.01,1339.9)" d="m0 0c0 44.064 9.851 85.827 27.471 123.21" clip-path="url(#swe-ab)" fill="none" stroke="#293481" stroke-miterlimit="10" stroke-width="3"/><path transform="matrix(1.3333,0,0,-1.3333,1675.2,1339.9)" d="m0 0c0 44.064-9.851 85.827-27.47 123.21" clip-path="url(#swe-aa)" fill="none" stroke="#293481" stroke-miterlimit="10" stroke-width="3"/></g><g transform="translate(951.96 381.42)" fill="#1a1a1a" fill-opacity=".8" stroke-width="1.333" style="paint-order:stroke fill markers;white-space:pre" aria-label="SOFTWARE
ENGINEERING"><path d="m119.46-62.337q0-6.3476-1.1393-11.556-1.1393-5.2083-4.8828-9.6028-3.5807-4.3945-10.579-8.789-6.8359-4.3945-17.903-9.1145-13.183-5.5338-25.553-11.719-12.37-6.3476-22.298-14.648-9.9283-8.3007-15.788-19.531-5.6966-11.393-5.6966-26.692 0-14.974 5.371-27.181 5.5338-12.207 15.625-20.833 10.091-8.789 23.6-13.509 13.672-4.72 30.436-4.72 22.786 0 39.388 9.44 16.764 9.44 25.879 25.879 9.2772 16.439 9.2772 37.76h-47.526q0-10.091-2.9297-17.741-2.7669-7.8124-8.9517-12.207-6.1848-4.3945-15.95-4.3945-9.1145 0-15.137 3.7434-5.8593 3.5807-8.789 9.9283-2.7669 6.1848-2.7669 13.997 0 5.8593 2.7669 10.579 2.9297 4.5572 7.9752 8.3007 5.0455 3.5807 11.881 6.9986 6.9986 3.4179 15.299 6.6731 16.113 6.3476 28.483 13.997 12.37 7.4869 20.67 16.927 8.3007 9.2772 12.532 20.996 4.2317 11.719 4.2317 26.692 0 14.811-5.2083 27.018-5.0455 12.044-14.811 20.833-9.7655 8.6262-23.6 13.346-13.672 4.72-30.599 4.72-16.439 0-31.087-4.5572-14.648-4.72-25.879-14.16-11.068-9.6028-17.415-24.251-6.3476-14.811-6.3476-34.993h47.688q0 10.742 2.1159 18.392 2.1159 7.4869 6.5104 12.044 4.3945 4.3945 10.742 6.6731 6.5104 2.1159 14.811 2.1159 9.44 0 14.974-3.5807 5.6966-3.5807 8.1379-9.6028 2.4414-6.0221 2.4414-13.672zm246.09-74.544v39.55q0 25.065-6.1848 43.945-6.0221 18.717-17.252 31.412-11.068 12.532-26.855 18.88-15.625 6.3476-34.668 6.3476-19.043 0-34.83-6.3476-15.625-6.3476-27.018-18.88-11.23-12.695-17.415-31.412-6.1848-18.88-6.1848-43.945v-39.55q0-25.716 6.0221-44.921 6.0221-19.368 17.415-32.226 11.393-13.021 27.018-19.531 15.625-6.6731 34.668-6.6731t34.668 6.6731q15.625 6.5104 27.018 19.531 11.393 12.858 17.415 32.226 6.1848 19.206 6.1848 44.921zm-47.363 39.55v-39.876q0-16.927-2.4414-28.808-2.4414-12.044-7.3241-19.694-4.8828-7.6497-11.881-11.23-6.9986-3.5807-16.276-3.5807t-16.439 3.5807q-6.9986 3.5807-11.881 11.23-4.72 7.6497-7.1614 19.694-2.2786 11.881-2.2786 28.808v39.876q0 16.276 2.4414 27.832 2.4414 11.556 7.3242 18.88 4.8828 7.3241 11.881 10.905 7.1614 3.4179 16.439 3.4179 9.1145 0 16.113-3.4179 7.1614-3.5807 11.881-10.905 4.72-7.3241 7.1614-18.88 2.4414-11.556 2.4414-27.832zm129.72-139.65v236.98h-47.688v-236.98zm74.218 100.75v39.388h-86.262v-39.388zm9.1145-100.75v39.55h-95.377v-39.55zm125.32 0v236.98h-47.363v-236.98zm58.919 0v39.55h-164.06v-39.55zm78.287 201.5 37.923-201.5h25.065l7.4869 31.25-40.69 205.73h-27.181zm-13.021-201.5 30.599 201.98-5.2083 34.993h-29.948l-42.48-236.98zm111 201.17 30.436-201.17h46.875l-42.155 236.98h-30.11zm-20.508-201.17 38.248 202.63-3.0924 34.342h-27.181l-40.527-206.05 7.6497-30.924zm202.8 42.317-50.944 194.66h-50.292l74.055-236.98h31.412zm40.201 194.66-51.269-194.66-4.72-42.317h31.901l74.706 236.98zm1.7904-88.378v39.55h-106.93v-39.55zm71.451-148.6h76.008q23.763 0 40.527 8.1379 16.764 8.1379 25.716 24.088 8.9518 15.95 8.9518 39.388 0 19.206-5.2083 32.877-5.2083 13.509-14.811 22.623-9.6027 8.9517-22.949 14.323l-14.486 8.6262h-61.686l-0.1627-39.55h42.806q9.7656 0 16.113-4.2317 6.5104-4.3945 9.6028-12.207 3.2552-7.9752 3.2552-18.554 0-11.23-2.9297-19.206-2.7669-8.1379-8.9517-12.37-6.0221-4.3945-15.788-4.3945h-28.32v197.43h-47.688zm107.58 236.98-43.457-105.63 49.967-0.16276 44.433 103.51v2.2786zm212.56-39.388v39.388h-103.03v-39.388zm-88.215-197.59v236.98h-47.688v-236.98zm74.381 96.028v38.248h-89.192v-38.248zm13.509-96.028v39.55h-102.7v-39.55z"/><path d="m155.11 303.94v39.388h-103.03v-39.388zm-88.215-197.59v236.98h-47.688v-236.98zm74.381 96.028v38.248h-89.192v-38.248zm13.509-96.028v39.55h-102.7v-39.55zm193.68 0v236.98h-46.061l-74.381-148.27v148.27h-45.247v-236.98h45.41l75.032 149.9v-149.9zm199.38 112.47v97.655q-5.0455 5.371-14.811 12.532-9.6028 6.9986-25.228 12.37-15.462 5.2083-37.76 5.2083-19.694 0-35.807-6.1848-15.95-6.1848-27.506-18.717-11.393-12.695-17.415-31.575-6.0221-19.043-6.0221-45.084v-40.364q0-25.716 5.6966-44.759 5.8593-19.206 16.927-31.901 11.068-12.695 26.367-18.88 15.462-6.1848 34.83-6.1848 26.692 0 43.782 8.9517 17.252 8.9517 26.041 26.53 8.9517 17.578 10.742 43.131h-46.061q-1.1393-14.974-5.0455-23.437-3.7434-8.4634-10.579-12.044-6.8359-3.7434-17.741-3.7434-9.44 0-16.439 3.4179-6.9986 3.2552-11.719 10.742-4.72 7.4869-6.9986 19.206t-2.2786 28.646v40.69q0 16.764 2.6041 28.646t7.6497 19.368q5.2083 7.4869 13.021 10.905 7.9752 3.2552 18.717 3.2552 8.6262 0 13.834-1.7904t8.3007-3.7434q3.2552-2.1159 5.371-3.2552v-43.619h-34.017v-35.97zm83.658-112.47v236.98h-47.363v-236.98zm206.22 0v236.98h-46.061l-74.381-148.27v148.27h-45.247v-236.98h45.41l75.032 149.9v-149.9zm174.31 197.59v39.388h-103.03v-39.388zm-88.215-197.59v236.98h-47.688v-236.98zm74.381 96.028v38.248h-89.192v-38.248zm13.509-96.028v39.55h-102.7v-39.55zm163.9 197.59v39.388h-103.03v-39.388zm-88.215-197.59v236.98h-47.688v-236.98zm74.381 96.028v38.248h-89.192v-38.248zm13.509-96.028v39.55h-102.7v-39.55zm28.157 0h76.008q23.763 0 40.527 8.1379 16.764 8.1379 25.716 24.088 8.9517 15.95 8.9517 39.388 0 19.206-5.2083 32.877-5.2083 13.509-14.811 22.623-9.6028 8.9517-22.949 14.323l-14.486 8.6262h-61.686l-0.1628-39.55h42.806q9.7655 0 16.113-4.2317 6.5103-4.3945 9.6028-12.207 3.2551-7.9752 3.2551-18.555 0-11.23-2.9296-19.206-2.7669-8.1379-8.9518-12.37-6.022-4.3945-15.788-4.3945h-28.32v197.43h-47.688zm107.58 236.98-43.457-105.63 49.967-0.16276 44.433 103.51v2.2786zm126.14-236.98v236.98h-47.363v-236.98zm206.22 0v236.98h-46.061l-74.381-148.27v148.27h-45.247v-236.98h45.41l75.032 149.9v-149.9zm199.38 112.47v97.655q-5.0455 5.371-14.811 12.532-9.6028 6.9986-25.228 12.37-15.462 5.2083-37.76 5.2083-19.694 0-35.807-6.1848-15.95-6.1848-27.506-18.717-11.393-12.695-17.415-31.575-6.0221-19.043-6.0221-45.084v-40.364q0-25.716 5.6965-44.759 5.8593-19.206 16.927-31.901 11.068-12.695 26.367-18.88 15.462-6.1848 34.83-6.1848 26.692 0 43.782 8.9517 17.252 8.9517 26.041 26.53 8.9517 17.578 10.742 43.131h-46.061q-1.1393-14.974-5.0455-23.437-3.7435-8.4634-10.579-12.044-6.8359-3.7434-17.741-3.7434-9.44 0-16.439 3.4179-6.9986 3.2552-11.719 10.742-4.72 7.4869-6.9986 19.206-2.2787 11.719-2.2787 28.646v40.69q0 16.764 2.6042 28.646 2.6041 11.881 7.6496 19.368 5.2083 7.4869 13.021 10.905 7.9752 3.2552 18.717 3.2552 8.6262 0 13.834-1.7904t8.3007-3.7434q3.2552-2.1159 5.371-3.2552v-43.619h-34.016v-35.97z"/></g></g></svg>
